<svg xmlns="http://www.w3.org/2000/svg" viewBox="0 0 1200 630">
  <defs>
    <radialGradient id="r1" cx="95%" cy="95%" r="60%">
      <stop offset="0%" stop-color="#A91C1C" stop-opacity="0.28"/>
      <stop offset="58%" stop-color="#A91C1C" stop-opacity="0.07"/>
      <stop offset="100%" stop-color="#A91C1C" stop-opacity="0"/>
    </radialGradient>
    <radialGradient id="g1" cx="5%" cy="5%" r="35%">
      <stop offset="0%" stop-color="#2F5731" stop-opacity="0.13"/>
      <stop offset="100%" stop-color="#2F5731" stop-opacity="0"/>
    </radialGradient>
  </defs>
  <rect width="1200" height="630" fill="#E2DBD0"/>
  <rect width="1200" height="630" fill="url(#r1)"/>
  <rect width="1200" height="630" fill="url(#g1)"/>
  <rect x="50" y="35" width="1100" height="560" fill="none" stroke="#A91C1C" stroke-width="1.5" opacity="0.15"/>
  <rect x="88" y="63" width="1024" height="504" fill="none" stroke="#333333" stroke-width="0.6" opacity="0.10"/>
  <circle cx="600" cy="310" r="110" fill="none" stroke="#333333" stroke-width="1.5" opacity="0.25"/>
  <circle cx="600" cy="200" r="14" fill="#333333" opacity="0.4"/>
  <circle cx="704" cy="255" r="14" fill="#333333" opacity="0.4"/>
  <circle cx="704" cy="365" r="14" fill="#333333" opacity="0.4"/>
  <circle cx="600" cy="420" r="14" fill="#333333" opacity="0.4"/>
  <circle cx="496" cy="365" r="14" fill="#333333" opacity="0.4"/>
  <circle cx="496" cy="255" r="14" fill="#333333" opacity="0.4"/>
  <rect x="450" y="280" width="300" height="60" rx="2" fill="none" stroke="#A91C1C" stroke-width="2" opacity="0.6"/>
  <rect x="780" y="260" width="130" height="80" rx="2" fill="none" stroke="#333333" stroke-width="1.2" opacity="0.35"/>
  <line x1="780" y1="276" x2="830" y2="276" stroke="#333333" stroke-width="1" opacity="0.3"/>
  <line x1="780" y1="288" x2="810" y2="288" stroke="#333333" stroke-width="1" opacity="0.25"/>
  <line x1="780" y1="300" x2="820" y2="300" stroke="#333333" stroke-width="1" opacity="0.2"/>
</svg>
