<svg xmlns="http://www.w3.org/2000/svg" viewBox="0 0 1200 630">
  <defs>
    <radialGradient id="r1" cx="50%" cy="50%" r="52%">
      <stop offset="0%" stop-color="#A91C1C" stop-opacity="0.20"/>
      <stop offset="48%" stop-color="#A91C1C" stop-opacity="0.06"/>
      <stop offset="100%" stop-color="#A91C1C" stop-opacity="0"/>
    </radialGradient>
    <radialGradient id="g1" cx="5%" cy="95%" r="42%">
      <stop offset="0%" stop-color="#2F5731" stop-opacity="0.16"/>
      <stop offset="100%" stop-color="#2F5731" stop-opacity="0"/>
    </radialGradient>
  </defs>
  <rect width="1200" height="630" fill="#E2DBD0"/>
  <rect width="1200" height="630" fill="url(#r1)"/>
  <rect width="1200" height="630" fill="url(#g1)"/>
  <rect x="50" y="35" width="1100" height="560" fill="none" stroke="#A91C1C" stroke-width="1.5" opacity="0.15"/>
  <rect x="88" y="63" width="1024" height="504" fill="none" stroke="#333333" stroke-width="0.6" opacity="0.10"/>
  <rect x="340" y="200" width="520" height="240" rx="2" fill="none" stroke="#333333" stroke-width="2" opacity="0.35"/>
  <rect x="360" y="220" width="480" height="200" rx="1" fill="none" stroke="#A91C1C" stroke-width="1" opacity="0.25"/>
  <rect x="140" y="220" width="80" height="240" rx="2" fill="none" stroke="#333333" stroke-width="1.5" opacity="0.45"/>
  <line x1="220" y1="340" x2="340" y2="340" stroke="#A91C1C" stroke-width="1.5" opacity="0.5" stroke-dasharray="5,3"/>
  <polygon points="340,340 320,333 328,340 320,347" fill="#A91C1C" opacity="0.55"/>
  <rect x="980" y="220" width="80" height="240" rx="2" fill="none" stroke="#333333" stroke-width="1.5" opacity="0.45"/>
  <line x1="860" y1="300" x2="980" y2="300" stroke="#A91C1C" stroke-width="1.5" opacity="0.5" stroke-dasharray="5,3"/>
  <polygon points="980,300 960,293 968,300 960,307" fill="#A91C1C" opacity="0.55"/>
  <rect x="140" y="430" width="80" height="30" rx="1" fill="#333333" opacity="0.15"/>
  <rect x="980" y="430" width="80" height="30" rx="1" fill="#333333" opacity="0.15"/>
  <line x1="380" y1="250" x2="820" y2="250" stroke="#A91C1C" stroke-width="1" opacity="0.35"/>
  <line x1="380" y1="268" x2="700" y2="268" stroke="#333333" stroke-width="1" opacity="0.25"/>
  <line x1="380" y1="284" x2="780" y2="284" stroke="#333333" stroke-width="1" opacity="0.22"/>
</svg>
