<svg xmlns="http://www.w3.org/2000/svg" viewBox="0 0 1200 630">
  <defs>
    <radialGradient id="r1" cx="50%" cy="50%" r="55%">
      <stop offset="0%" stop-color="#A91C1C" stop-opacity="0.22"/>
      <stop offset="50%" stop-color="#A91C1C" stop-opacity="0.07"/>
      <stop offset="100%" stop-color="#A91C1C" stop-opacity="0"/>
    </radialGradient>
    <radialGradient id="g1" cx="10%" cy="90%" r="38%">
      <stop offset="0%" stop-color="#2F5731" stop-opacity="0.15"/>
      <stop offset="100%" stop-color="#2F5731" stop-opacity="0"/>
    </radialGradient>
  </defs>
  <rect width="1200" height="630" fill="#E2DBD0"/>
  <rect width="1200" height="630" fill="url(#r1)"/>
  <rect width="1200" height="630" fill="url(#g1)"/>
  <rect x="50" y="35" width="1100" height="560" fill="none" stroke="#A91C1C" stroke-width="1.5" opacity="0.15"/>
  <rect x="88" y="63" width="1024" height="504" fill="none" stroke="#333333" stroke-width="0.6" opacity="0.10"/>
  <circle cx="600" cy="315" r="55" fill="none" stroke="#A91C1C" stroke-width="2" opacity="0.55"/>
  <circle cx="600" cy="315" r="85" fill="none" stroke="#A91C1C" stroke-width="1" opacity="0.2"/>
  <circle cx="600" cy="315" r="15" fill="#A91C1C" opacity="0.6"/>
  <circle cx="600" cy="180" r="12" fill="#333333" opacity="0.45"/>
  <circle cx="720" cy="215" r="12" fill="#333333" opacity="0.45"/>
  <circle cx="790" cy="330" r="12" fill="#2F5731" opacity="0.55"/>
  <circle cx="720" cy="435" r="12" fill="#333333" opacity="0.4"/>
  <circle cx="600" cy="465" r="12" fill="#333333" opacity="0.4"/>
  <circle cx="480" cy="435" r="12" fill="#333333" opacity="0.4"/>
  <circle cx="405" cy="330" r="12" fill="#2F5731" opacity="0.55"/>
  <circle cx="480" cy="215" r="12" fill="#333333" opacity="0.45"/>
  <line x1="600" y1="192" x2="600" y2="260" stroke="#333333" stroke-width="1.2" opacity="0.3"/>
  <line x1="720" y1="227" x2="660" y2="272" stroke="#333333" stroke-width="1.2" opacity="0.3"/>
  <line x1="790" y1="330" x2="710" y2="330" stroke="#2F5731" stroke-width="1.2" opacity="0.35"/>
  <line x1="720" y1="435" x2="658" y2="368" stroke="#333333" stroke-width="1.2" opacity="0.3"/>
  <line x1="600" y1="453" x2="600" y2="370" stroke="#333333" stroke-width="1.2" opacity="0.3"/>
  <line x1="480" y1="435" x2="545" y2="368" stroke="#333333" stroke-width="1.2" opacity="0.3"/>
  <line x1="405" y1="330" x2="490" y2="330" stroke="#2F5731" stroke-width="1.2" opacity="0.35"/>
  <line x1="480" y1="215" x2="542" y2="272" stroke="#333333" stroke-width="1.2" opacity="0.3"/>
</svg>
