<svg xmlns="http://www.w3.org/2000/svg" viewBox="0 0 1200 630">
  <defs>
    <radialGradient id="r1" cx="95%" cy="5%" r="55%">
      <stop offset="0%" stop-color="#A91C1C" stop-opacity="0.28"/>
      <stop offset="55%" stop-color="#A91C1C" stop-opacity="0.07"/>
      <stop offset="100%" stop-color="#A91C1C" stop-opacity="0"/>
    </radialGradient>
    <radialGradient id="g1" cx="5%" cy="95%" r="30%">
      <stop offset="0%" stop-color="#2F5731" stop-opacity="0.12"/>
      <stop offset="100%" stop-color="#2F5731" stop-opacity="0"/>
    </radialGradient>
  </defs>
  <rect width="1200" height="630" fill="#E2DBD0"/>
  <rect width="1200" height="630" fill="url(#r1)"/>
  <rect width="1200" height="630" fill="url(#g1)"/>
  <rect x="50" y="35" width="1100" height="560" fill="none" stroke="#A91C1C" stroke-width="1.5" opacity="0.15"/>
  <rect x="88" y="63" width="1024" height="504" fill="none" stroke="#333333" stroke-width="0.6" opacity="0.10"/>
  <rect x="310" y="185" width="170" height="95" rx="3" fill="none" stroke="#333333" stroke-width="1.5" opacity="0.5"/>
  <rect x="515" y="185" width="170" height="95" rx="3" fill="none" stroke="#A91C1C" stroke-width="1.5" opacity="0.7"/>
  <rect x="720" y="185" width="170" height="95" rx="3" fill="none" stroke="#333333" stroke-width="1.5" opacity="0.5"/>
  <rect x="310" y="350" width="170" height="95" rx="3" fill="none" stroke="#333333" stroke-width="1.5" opacity="0.45"/>
  <rect x="515" y="350" width="170" height="95" rx="3" fill="none" stroke="#333333" stroke-width="1.5" opacity="0.45"/>
  <rect x="720" y="350" width="170" height="95" rx="3" fill="none" stroke="#333333" stroke-width="1.5" opacity="0.45"/>
  <line x1="330" y1="207" x2="470" y2="207" stroke="#333333" stroke-width="1" opacity="0.35"/>
  <line x1="330" y1="220" x2="420" y2="220" stroke="#333333" stroke-width="1" opacity="0.25"/>
  <line x1="535" y1="207" x2="665" y2="207" stroke="#A91C1C" stroke-width="1.2" opacity="0.6"/>
  <line x1="535" y1="220" x2="615" y2="220" stroke="#A91C1C" stroke-width="1" opacity="0.4"/>
  <line x1="740" y1="207" x2="870" y2="207" stroke="#333333" stroke-width="1" opacity="0.35"/>
  <line x1="740" y1="220" x2="820" y2="220" stroke="#333333" stroke-width="1" opacity="0.25"/>
  <polyline points="600,280 600,320 600,350" fill="none" stroke="#A91C1C" stroke-width="1.2" opacity="0.4" stroke-linecap="round"/>
</svg>
