<svg xmlns="http://www.w3.org/2000/svg" viewBox="0 0 1200 630">
  <rect width="1200" height="630" fill="#0d2137"/>
  <defs>
    <linearGradient id="lg" x1="0%" y1="0%" x2="0%" y2="100%">
      <stop offset="0%" stop-color="#1a5276" stop-opacity="0.3"/>
      <stop offset="100%" stop-color="#0d2137" stop-opacity="0"/>
    </linearGradient>
  </defs>
  <rect width="1200" height="630" fill="url(#lg)"/>
  <rect x="320" y="155" width="560" height="80" rx="4" fill="#1a5276" opacity="0.5"/>
  <rect x="340" y="172" width="300" height="8" rx="2" fill="#f0a500" opacity="0.6"/>
  <rect x="340" y="190" width="200" height="6" rx="2" fill="#1a5276" opacity="0.6"/>
  <rect x="340" y="204" width="240" height="6" rx="2" fill="#1a5276" opacity="0.4"/>
  <rect x="295" y="255" width="610" height="80" rx="4" fill="#1a5276" opacity="0.4"/>
  <rect x="315" y="272" width="280" height="8" rx="2" fill="#f0a500" opacity="0.45"/>
  <rect x="315" y="290" width="220" height="6" rx="2" fill="#1a5276" opacity="0.5"/>
  <rect x="315" y="304" width="260" height="6" rx="2" fill="#1a5276" opacity="0.35"/>
  <rect x="270" y="355" width="660" height="80" rx="4" fill="#1a5276" opacity="0.3"/>
  <rect x="290" y="372" width="260" height="8" rx="2" fill="#f0a500" opacity="0.35"/>
  <rect x="290" y="390" width="200" height="6" rx="2" fill="#1a5276" opacity="0.45"/>
  <rect x="290" y="404" width="280" height="6" rx="2" fill="#1a5276" opacity="0.3"/>
  <rect x="245" y="455" width="710" height="80" rx="4" fill="#1a5276" opacity="0.2"/>
  <rect x="265" y="472" width="240" height="8" rx="2" fill="#1a5276" opacity="0.35"/>
  <rect x="265" y="490" width="180" height="6" rx="2" fill="#1a5276" opacity="0.3"/>
</svg>
