<svg xmlns="http://www.w3.org/2000/svg" viewBox="0 0 1200 630">
  <defs>
    <radialGradient id="r1" cx="5%" cy="95%" r="60%">
      <stop offset="0%" stop-color="#A91C1C" stop-opacity="0.26"/>
      <stop offset="55%" stop-color="#A91C1C" stop-opacity="0.07"/>
      <stop offset="100%" stop-color="#A91C1C" stop-opacity="0"/>
    </radialGradient>
    <radialGradient id="g1" cx="90%" cy="10%" r="38%">
      <stop offset="0%" stop-color="#2F5731" stop-opacity="0.14"/>
      <stop offset="100%" stop-color="#2F5731" stop-opacity="0"/>
    </radialGradient>
  </defs>
  <rect width="1200" height="630" fill="#E2DBD0"/>
  <rect width="1200" height="630" fill="url(#r1)"/>
  <rect width="1200" height="630" fill="url(#g1)"/>
  <rect x="50" y="35" width="1100" height="560" fill="none" stroke="#A91C1C" stroke-width="1.5" opacity="0.15"/>
  <rect x="88" y="63" width="1024" height="504" fill="none" stroke="#333333" stroke-width="0.6" opacity="0.10"/>
  <rect x="300" y="175" width="600" height="70" rx="2" fill="none" stroke="#A91C1C" stroke-width="1.8" opacity="0.55"/>
  <rect x="300" y="390" width="600" height="70" rx="2" fill="none" stroke="#2F5731" stroke-width="1.8" opacity="0.5"/>
  <polyline points="360,245 420,300 500,270 580,330 660,295 740,350 820,300 860,310" fill="none" stroke="#333333" stroke-width="1.8" opacity="0.5" stroke-linecap="round" stroke-linejoin="round"/>
  <path d="M 900 320 Q 950 280 960 390 Q 970 460 860 460 Q 750 460 700 390" fill="none" stroke="#A91C1C" stroke-width="1.8" opacity="0.55" stroke-linecap="round"/>
  <polygon points="700,390 716,372 706,388 718,402" fill="#A91C1C" opacity="0.6"/>
  <line x1="310" y1="200" x2="890" y2="200" stroke="#A91C1C" stroke-width="0.8" opacity="0.3"/>
</svg>
