<svg xmlns="http://www.w3.org/2000/svg" viewBox="0 0 1200 630">
  <rect width="1200" height="630" fill="#0d2137"/>
  <defs>
    <linearGradient id="lg" x1="0%" y1="0%" x2="100%" y2="0%">
      <stop offset="0%" stop-color="#1a5276" stop-opacity="0.45"/>
      <stop offset="100%" stop-color="#0d2137" stop-opacity="0"/>
    </linearGradient>
  </defs>
  <rect width="1200" height="630" fill="url(#lg)"/>
  <line x1="180" y1="157" x2="980" y2="157" stroke="#1a5276" stroke-width="2" opacity="0.4"/>
  <polygon points="980,157 940,145 960,157 940,169" fill="#1a5276" opacity="0.4"/>
  <line x1="180" y1="245" x2="980" y2="245" stroke="#1a5276" stroke-width="2" opacity="0.5"/>
  <polygon points="980,245 940,233 960,245 940,257" fill="#1a5276" opacity="0.5"/>
  <line x1="180" y1="333" x2="980" y2="333" stroke="#f0a500" stroke-width="2.5" opacity="0.75"/>
  <polygon points="980,333 936,320 958,333 936,346" fill="#f0a500" opacity="0.8"/>
  <line x1="180" y1="421" x2="980" y2="421" stroke="#1a5276" stroke-width="2" opacity="0.5"/>
  <polygon points="980,421 940,409 960,421 940,433" fill="#1a5276" opacity="0.5"/>
  <line x1="180" y1="509" x2="980" y2="509" stroke="#1a5276" stroke-width="2" opacity="0.4"/>
  <polygon points="980,509 940,497 960,509 940,521" fill="#1a5276" opacity="0.4"/>
  <circle cx="180" cy="157" r="6" fill="#1a5276" opacity="0.4"/>
  <circle cx="180" cy="245" r="6" fill="#1a5276" opacity="0.5"/>
  <circle cx="180" cy="333" r="8" fill="#f0a500" opacity="0.75"/>
  <circle cx="180" cy="421" r="6" fill="#1a5276" opacity="0.5"/>
  <circle cx="180" cy="509" r="6" fill="#1a5276" opacity="0.4"/>
</svg>
