<svg xmlns="http://www.w3.org/2000/svg" viewBox="0 0 1200 630">
  <defs>
    <radialGradient id="r1" cx="5%" cy="95%" r="60%">
      <stop offset="0%" stop-color="#A91C1C" stop-opacity="0.26"/>
      <stop offset="55%" stop-color="#A91C1C" stop-opacity="0.07"/>
      <stop offset="100%" stop-color="#A91C1C" stop-opacity="0"/>
    </radialGradient>
    <radialGradient id="g1" cx="90%" cy="10%" r="38%">
      <stop offset="0%" stop-color="#2F5731" stop-opacity="0.14"/>
      <stop offset="100%" stop-color="#2F5731" stop-opacity="0"/>
    </radialGradient>
  </defs>
  <rect width="1200" height="630" fill="#E2DBD0"/>
  <rect width="1200" height="630" fill="url(#r1)"/>
  <rect width="1200" height="630" fill="url(#g1)"/>
  <rect x="50" y="35" width="1100" height="560" fill="none" stroke="#A91C1C" stroke-width="1.5" opacity="0.15"/>
  <rect x="88" y="63" width="1024" height="504" fill="none" stroke="#333333" stroke-width="0.6" opacity="0.10"/>
  <line x1="200" y1="440" x2="1000" y2="440" stroke="#333333" stroke-width="2" opacity="0.35"/>
  <rect x="200" y="390" width="100" height="50" rx="1" fill="none" stroke="#333333" stroke-width="1.5" opacity="0.5"/>
  <rect x="320" y="370" width="100" height="70" rx="1" fill="none" stroke="#A91C1C" stroke-width="1.5" opacity="0.65"/>
  <rect x="440" y="355" width="100" height="85" rx="1" fill="none" stroke="#333333" stroke-width="1.5" opacity="0.5"/>
  <rect x="560" y="370" width="100" height="70" rx="1" fill="none" stroke="#333333" stroke-width="1.5" opacity="0.45"/>
  <rect x="680" y="385" width="100" height="55" rx="1" fill="none" stroke="#A91C1C" stroke-width="1.5" opacity="0.6"/>
  <rect x="800" y="400" width="100" height="40" rx="1" fill="none" stroke="#333333" stroke-width="1.5" opacity="0.4"/>
  <rect x="920" y="395" width="80" height="45" rx="1" fill="none" stroke="#333333" stroke-width="1.2" opacity="0.35"/>
  <circle cx="230" cy="330" r="10" fill="#333333" opacity="0.35"/>
  <circle cx="380" cy="305" r="10" fill="#333333" opacity="0.4"/>
  <circle cx="530" cy="285" r="10" fill="#A91C1C" opacity="0.55"/>
  <circle cx="680" cy="295" r="10" fill="#333333" opacity="0.4"/>
  <line x1="230" y1="340" x2="230" y2="390" stroke="#333333" stroke-width="1" opacity="0.25"/>
  <line x1="380" y1="315" x2="375" y2="370" stroke="#333333" stroke-width="1" opacity="0.25"/>
  <line x1="530" y1="295" x2="505" y2="355" stroke="#A91C1C" stroke-width="1" opacity="0.35"/>
</svg>
