<svg xmlns="http://www.w3.org/2000/svg" viewBox="0 0 1200 630">
  <defs>
    <radialGradient id="r1" cx="95%" cy="5%" r="62%">
      <stop offset="0%" stop-color="#A91C1C" stop-opacity="0.28"/>
      <stop offset="58%" stop-color="#A91C1C" stop-opacity="0.07"/>
      <stop offset="100%" stop-color="#A91C1C" stop-opacity="0"/>
    </radialGradient>
    <radialGradient id="g1" cx="5%" cy="95%" r="35%">
      <stop offset="0%" stop-color="#2F5731" stop-opacity="0.14"/>
      <stop offset="100%" stop-color="#2F5731" stop-opacity="0"/>
    </radialGradient>
  </defs>
  <rect width="1200" height="630" fill="#E2DBD0"/>
  <rect width="1200" height="630" fill="url(#r1)"/>
  <rect width="1200" height="630" fill="url(#g1)"/>
  <rect x="50" y="35" width="1100" height="560" fill="none" stroke="#A91C1C" stroke-width="1.5" opacity="0.15"/>
  <rect x="88" y="63" width="1024" height="504" fill="none" stroke="#333333" stroke-width="0.6" opacity="0.10"/>
  <rect x="310" y="230" width="580" height="140" rx="3" fill="none" stroke="#333333" stroke-width="2" opacity="0.45"/>
  <rect x="340" y="255" width="90" height="90" rx="2" fill="none" stroke="#A91C1C" stroke-width="1.5" opacity="0.5"/>
  <rect x="560" y="255" width="90" height="90" rx="2" fill="none" stroke="#333333" stroke-width="1.2" opacity="0.35"/>
  <rect x="770" y="255" width="90" height="90" rx="2" fill="none" stroke="#333333" stroke-width="1.2" opacity="0.35"/>
  <line x1="600" y1="370" x2="600" y2="415" stroke="#A91C1C" stroke-width="1.5" opacity="0.5"/>
  <polygon points="620,408 600,430 580,408" fill="none" stroke="#A91C1C" stroke-width="1.5" opacity="0.5"/>
  <line x1="350" y1="430" x2="850" y2="430" stroke="#333333" stroke-width="1" opacity="0.2"/>
  <line x1="600" y1="168" x2="600" y2="230" stroke="#333333" stroke-width="1" opacity="0.2"/>
  <rect x="560" y="150" width="80" height="18" rx="2" fill="none" stroke="#A91C1C" stroke-width="1" opacity="0.35"/>
</svg>
