<svg xmlns="http://www.w3.org/2000/svg" viewBox="0 0 1200 630">
  <defs>
    <radialGradient id="r1" cx="95%" cy="50%" r="58%">
      <stop offset="0%" stop-color="#A91C1C" stop-opacity="0.24"/>
      <stop offset="55%" stop-color="#A91C1C" stop-opacity="0.06"/>
      <stop offset="100%" stop-color="#A91C1C" stop-opacity="0"/>
    </radialGradient>
    <radialGradient id="g1" cx="5%" cy="50%" r="38%">
      <stop offset="0%" stop-color="#2F5731" stop-opacity="0.15"/>
      <stop offset="100%" stop-color="#2F5731" stop-opacity="0"/>
    </radialGradient>
  </defs>
  <rect width="1200" height="630" fill="#E2DBD0"/>
  <rect width="1200" height="630" fill="url(#r1)"/>
  <rect width="1200" height="630" fill="url(#g1)"/>
  <rect x="50" y="35" width="1100" height="560" fill="none" stroke="#A91C1C" stroke-width="1.5" opacity="0.15"/>
  <rect x="88" y="63" width="1024" height="504" fill="none" stroke="#333333" stroke-width="0.6" opacity="0.10"/>
  <circle cx="350" cy="200" r="18" fill="none" stroke="#2F5731" stroke-width="1.5" opacity="0.6"/>
  <circle cx="350" cy="290" r="18" fill="none" stroke="#2F5731" stroke-width="1.5" opacity="0.6"/>
  <circle cx="350" cy="380" r="18" fill="none" stroke="#2F5731" stroke-width="1.5" opacity="0.55"/>
  <circle cx="350" cy="460" r="18" fill="none" stroke="#2F5731" stroke-width="1.5" opacity="0.5"/>
  <circle cx="750" cy="315" r="65" fill="none" stroke="#333333" stroke-width="2" opacity="0.35"/>
  <circle cx="750" cy="315" r="35" fill="none" stroke="#A91C1C" stroke-width="1.5" opacity="0.45"/>
  <line x1="368" y1="200" x2="685" y2="295" stroke="#2F5731" stroke-width="1.2" opacity="0.35" stroke-linecap="round"/>
  <line x1="368" y1="290" x2="715" y2="315" stroke="#2F5731" stroke-width="1.2" opacity="0.35" stroke-linecap="round"/>
  <line x1="368" y1="380" x2="715" y2="335" stroke="#2F5731" stroke-width="1.2" opacity="0.3" stroke-linecap="round"/>
  <line x1="368" y1="460" x2="685" y2="350" stroke="#2F5731" stroke-width="1.2" opacity="0.28" stroke-linecap="round"/>
  <line x1="815" y1="315" x2="870" y2="315" stroke="#333333" stroke-width="1.5" opacity="0.3"/>
  <polygon points="870,315 850,308 858,315 850,322" fill="#333333" opacity="0.3"/>
</svg>
