<svg xmlns="http://www.w3.org/2000/svg" viewBox="0 0 1200 630">
  <rect width="1200" height="630" fill="#0d2137"/>
  <defs>
    <linearGradient id="lg" x1="0%" y1="100%" x2="0%" y2="0%">
      <stop offset="0%" stop-color="#1a5276" stop-opacity="0.5"/>
      <stop offset="100%" stop-color="#0d2137" stop-opacity="0"/>
    </linearGradient>
  </defs>
  <rect width="1200" height="630" fill="url(#lg)"/>
  <line x1="240" y1="150" x2="240" y2="520" stroke="#1a5276" stroke-width="1" opacity="0.3"/>
  <line x1="400" y1="150" x2="400" y2="520" stroke="#1a5276" stroke-width="1" opacity="0.3"/>
  <line x1="560" y1="150" x2="560" y2="520" stroke="#1a5276" stroke-width="1" opacity="0.3"/>
  <line x1="720" y1="150" x2="720" y2="520" stroke="#1a5276" stroke-width="1" opacity="0.3"/>
  <line x1="880" y1="150" x2="880" y2="520" stroke="#1a5276" stroke-width="1" opacity="0.3"/>
  <line x1="1040" y1="150" x2="1040" y2="520" stroke="#1a5276" stroke-width="1" opacity="0.3"/>
  <line x1="200" y1="200" x2="1060" y2="200" stroke="#1a5276" stroke-width="1" opacity="0.3"/>
  <line x1="200" y1="290" x2="1060" y2="290" stroke="#1a5276" stroke-width="1" opacity="0.3"/>
  <line x1="200" y1="380" x2="1060" y2="380" stroke="#1a5276" stroke-width="1" opacity="0.3"/>
  <line x1="200" y1="470" x2="1060" y2="470" stroke="#1a5276" stroke-width="1" opacity="0.3"/>
  <rect x="200" y="490" width="860" height="30" rx="3" fill="#1a5276" opacity="0.5"/>
  <rect x="200" y="490" width="600" height="30" rx="3" fill="#f0a500" opacity="0.4"/>
  <rect x="200" y="490" width="250" height="30" rx="3" fill="#f0a500" opacity="0.25"/>
  <rect x="240" y="200" width="160" height="90" rx="2" fill="#1a5276" opacity="0.35"/>
  <rect x="400" y="290" width="160" height="90" rx="2" fill="#1a5276" opacity="0.3"/>
  <rect x="720" y="200" width="160" height="90" rx="2" fill="#f0a500" opacity="0.2"/>
  <rect x="560" y="380" width="160" height="90" rx="2" fill="#1a5276" opacity="0.25"/>
  <rect x="880" y="290" width="160" height="90" rx="2" fill="#1a5276" opacity="0.25"/>
</svg>
