<svg xmlns="http://www.w3.org/2000/svg" viewBox="0 0 1200 630">
  <defs>
    <radialGradient id="r1" cx="2%" cy="50%" r="58%">
      <stop offset="0%" stop-color="#A91C1C" stop-opacity="0.28"/>
      <stop offset="55%" stop-color="#A91C1C" stop-opacity="0.07"/>
      <stop offset="100%" stop-color="#A91C1C" stop-opacity="0"/>
    </radialGradient>
    <radialGradient id="g1" cx="98%" cy="50%" r="35%">
      <stop offset="0%" stop-color="#2F5731" stop-opacity="0.13"/>
      <stop offset="100%" stop-color="#2F5731" stop-opacity="0"/>
    </radialGradient>
  </defs>
  <rect width="1200" height="630" fill="#E2DBD0"/>
  <rect width="1200" height="630" fill="url(#r1)"/>
  <rect width="1200" height="630" fill="url(#g1)"/>
  <rect x="50" y="35" width="1100" height="560" fill="none" stroke="#A91C1C" stroke-width="1.5" opacity="0.15"/>
  <rect x="88" y="63" width="1024" height="504" fill="none" stroke="#333333" stroke-width="0.6" opacity="0.10"/>
  <circle cx="230" cy="315" r="30" fill="none" stroke="#333333" stroke-width="2" opacity="0.5"/>
  <circle cx="450" cy="240" r="30" fill="none" stroke="#A91C1C" stroke-width="2" opacity="0.7"/>
  <circle cx="650" cy="340" r="30" fill="none" stroke="#333333" stroke-width="2" opacity="0.5"/>
  <circle cx="850" cy="260" r="30" fill="none" stroke="#333333" stroke-width="2" opacity="0.5"/>
  <circle cx="1000" cy="350" r="30" fill="none" stroke="#2F5731" stroke-width="2" opacity="0.6"/>
  <line x1="258" y1="302" x2="420" y2="254" stroke="#333333" stroke-width="1.8" opacity="0.45" stroke-linecap="round"/>
  <line x1="478" y1="254" x2="622" y2="326" stroke="#A91C1C" stroke-width="1.8" opacity="0.6" stroke-linecap="round"/>
  <line x1="678" y1="327" x2="822" y2="270" stroke="#333333" stroke-width="1.8" opacity="0.45" stroke-linecap="round"/>
  <line x1="878" y1="272" x2="972" y2="338" stroke="#333333" stroke-width="1.8" opacity="0.45" stroke-linecap="round"/>
  <polygon points="425,253 410,242 416,255 408,266" fill="#333333" opacity="0.4"/>
  <polygon points="625,327 607,319 615,330 605,340" fill="#A91C1C" opacity="0.6"/>
  <polygon points="825,270 808,262 816,273 806,283" fill="#333333" opacity="0.4"/>
  <polygon points="973,340 956,332 964,343 954,353" fill="#333333" opacity="0.4"/>
</svg>
