<svg xmlns="http://www.w3.org/2000/svg" viewBox="0 0 1200 630">
  <rect width="1200" height="630" fill="#0d2137"/>
  <defs>
    <radialGradient id="rg" cx="50%" cy="50%" r="50%">
      <stop offset="0%" stop-color="#1a5276" stop-opacity="0.55"/>
      <stop offset="100%" stop-color="#0d2137" stop-opacity="0"/>
    </radialGradient>
  </defs>
  <rect width="1200" height="630" fill="url(#rg)"/>
  <circle cx="600" cy="315" r="270" fill="none" stroke="#1a5276" stroke-width="1.5" opacity="0.45"/>
  <circle cx="600" cy="315" r="190" fill="none" stroke="#1a5276" stroke-width="1.2" opacity="0.35"/>
  <circle cx="600" cy="315" r="110" fill="none" stroke="#1a5276" stroke-width="1" opacity="0.3"/>
  <line x1="280" y1="315" x2="920" y2="315" stroke="#f0a500" stroke-width="1" opacity="0.3"/>
  <line x1="600" y1="45" x2="600" y2="585" stroke="#f0a500" stroke-width="1" opacity="0.3"/>
  <line x1="327" y1="88" x2="873" y2="542" stroke="#1a5276" stroke-width="0.8" opacity="0.2"/>
  <line x1="873" y1="88" x2="327" y2="542" stroke="#1a5276" stroke-width="0.8" opacity="0.2"/>
  <polygon points="600,55 591,118 600,98 609,118" fill="#f0a500" opacity="0.85"/>
  <polygon points="600,575 591,512 600,532 609,512" fill="#1a5276" opacity="0.45"/>
  <polygon points="910,315 848,308 868,315 848,322" fill="#f0a500" opacity="0.4"/>
  <polygon points="290,315 352,308 332,315 352,322" fill="#1a5276" opacity="0.3"/>
  <circle cx="600" cy="315" r="14" fill="#f0a500" opacity="0.9"/>
  <circle cx="600" cy="315" r="6" fill="#0d2137"/>
</svg>
