<svg xmlns="http://www.w3.org/2000/svg" viewBox="0 0 1200 630">
  <defs>
    <radialGradient id="r1" cx="5%" cy="5%" r="65%">
      <stop offset="0%" stop-color="#A91C1C" stop-opacity="0.30"/>
      <stop offset="55%" stop-color="#A91C1C" stop-opacity="0.07"/>
      <stop offset="100%" stop-color="#A91C1C" stop-opacity="0"/>
    </radialGradient>
    <radialGradient id="g1" cx="95%" cy="95%" r="35%">
      <stop offset="0%" stop-color="#2F5731" stop-opacity="0.12"/>
      <stop offset="100%" stop-color="#2F5731" stop-opacity="0"/>
    </radialGradient>
  </defs>
  <rect width="1200" height="630" fill="#E2DBD0"/>
  <rect width="1200" height="630" fill="url(#r1)"/>
  <rect width="1200" height="630" fill="url(#g1)"/>
  <rect x="50" y="35" width="1100" height="560" fill="none" stroke="#A91C1C" stroke-width="1.5" opacity="0.15"/>
  <rect x="88" y="63" width="1024" height="504" fill="none" stroke="#333333" stroke-width="0.6" opacity="0.10"/>
  <rect x="500" y="165" width="200" height="52" rx="2" fill="none" stroke="#A91C1C" stroke-width="2" opacity="0.8"/>
  <rect x="450" y="237" width="300" height="52" rx="2" fill="none" stroke="#333333" stroke-width="1.5" opacity="0.6"/>
  <rect x="390" y="309" width="420" height="52" rx="2" fill="none" stroke="#333333" stroke-width="1.5" opacity="0.5"/>
  <rect x="330" y="381" width="540" height="52" rx="2" fill="none" stroke="#333333" stroke-width="1.2" opacity="0.4"/>
  <rect x="270" y="453" width="660" height="52" rx="2" fill="none" stroke="#333333" stroke-width="1.2" opacity="0.3"/>
  <line x1="600" y1="217" x2="600" y2="237" stroke="#333333" stroke-width="1" opacity="0.25"/>
  <line x1="600" y1="289" x2="600" y2="309" stroke="#333333" stroke-width="1" opacity="0.25"/>
  <line x1="600" y1="361" x2="600" y2="381" stroke="#333333" stroke-width="1" opacity="0.2"/>
  <line x1="600" y1="433" x2="600" y2="453" stroke="#333333" stroke-width="1" opacity="0.2"/>
</svg>
