<svg xmlns="http://www.w3.org/2000/svg" viewBox="0 0 1200 630">
  <defs>
    <radialGradient id="r1" cx="5%" cy="5%" r="62%">
      <stop offset="0%" stop-color="#A91C1C" stop-opacity="0.26"/>
      <stop offset="55%" stop-color="#A91C1C" stop-opacity="0.07"/>
      <stop offset="100%" stop-color="#A91C1C" stop-opacity="0"/>
    </radialGradient>
    <radialGradient id="g1" cx="95%" cy="95%" r="38%">
      <stop offset="0%" stop-color="#2F5731" stop-opacity="0.12"/>
      <stop offset="100%" stop-color="#2F5731" stop-opacity="0"/>
    </radialGradient>
  </defs>
  <rect width="1200" height="630" fill="#E2DBD0"/>
  <rect width="1200" height="630" fill="url(#r1)"/>
  <rect width="1200" height="630" fill="url(#g1)"/>
  <rect x="50" y="35" width="1100" height="560" fill="none" stroke="#A91C1C" stroke-width="1.5" opacity="0.15"/>
  <rect x="88" y="63" width="1024" height="504" fill="none" stroke="#333333" stroke-width="0.6" opacity="0.10"/>
  <rect x="290" y="200" width="140" height="180" rx="3" fill="none" stroke="#333333" stroke-width="1.5" opacity="0.5"/>
  <rect x="530" y="200" width="140" height="180" rx="3" fill="none" stroke="#A91C1C" stroke-width="2" opacity="0.7"/>
  <rect x="770" y="200" width="140" height="180" rx="3" fill="none" stroke="#333333" stroke-width="1.5" opacity="0.45"/>
  <circle cx="360" cy="255" r="22" fill="none" stroke="#333333" stroke-width="1.2" opacity="0.4"/>
  <circle cx="600" cy="255" r="22" fill="none" stroke="#A91C1C" stroke-width="1.5" opacity="0.6"/>
  <circle cx="840" cy="255" r="22" fill="none" stroke="#333333" stroke-width="1.2" opacity="0.4"/>
  <line x1="315" y1="302" x2="415" y2="302" stroke="#333333" stroke-width="1" opacity="0.3"/>
  <line x1="315" y1="318" x2="395" y2="318" stroke="#333333" stroke-width="1" opacity="0.25"/>
  <line x1="555" y1="302" x2="655" y2="302" stroke="#A91C1C" stroke-width="1.2" opacity="0.5"/>
  <line x1="555" y1="318" x2="635" y2="318" stroke="#A91C1C" stroke-width="1" opacity="0.38"/>
  <line x1="795" y1="302" x2="895" y2="302" stroke="#333333" stroke-width="1" opacity="0.28"/>
  <line x1="795" y1="318" x2="875" y2="318" stroke="#333333" stroke-width="1" opacity="0.22"/>
  <line x1="360" y1="380" x2="360" y2="430" stroke="#333333" stroke-width="1.2" opacity="0.3"/>
  <line x1="600" y1="380" x2="600" y2="430" stroke="#A91C1C" stroke-width="1.5" opacity="0.5"/>
  <line x1="840" y1="380" x2="840" y2="430" stroke="#333333" stroke-width="1.2" opacity="0.28"/>
  <line x1="360" y1="430" x2="840" y2="430" stroke="#333333" stroke-width="1.2" opacity="0.25"/>
</svg>
