<svg xmlns="http://www.w3.org/2000/svg" viewBox="0 0 1200 630">
  <defs>
    <radialGradient id="r1" cx="95%" cy="5%" r="60%">
      <stop offset="0%" stop-color="#A91C1C" stop-opacity="0.26"/>
      <stop offset="55%" stop-color="#A91C1C" stop-opacity="0.07"/>
      <stop offset="100%" stop-color="#A91C1C" stop-opacity="0"/>
    </radialGradient>
    <radialGradient id="g1" cx="5%" cy="95%" r="38%">
      <stop offset="0%" stop-color="#2F5731" stop-opacity="0.14"/>
      <stop offset="100%" stop-color="#2F5731" stop-opacity="0"/>
    </radialGradient>
  </defs>
  <rect width="1200" height="630" fill="#E2DBD0"/>
  <rect width="1200" height="630" fill="url(#r1)"/>
  <rect width="1200" height="630" fill="url(#g1)"/>
  <rect x="50" y="35" width="1100" height="560" fill="none" stroke="#A91C1C" stroke-width="1.5" opacity="0.15"/>
  <rect x="88" y="63" width="1024" height="504" fill="none" stroke="#333333" stroke-width="0.6" opacity="0.10"/>
  <line x1="88" y1="400" x2="1112" y2="400" stroke="#333333" stroke-width="1" opacity="0.18"/>
  <line x1="88" y1="380" x2="1112" y2="380" stroke="#333333" stroke-width="0.8" opacity="0.12"/>
  <line x1="340" y1="63" x2="340" y2="567" stroke="#333333" stroke-width="0.8" opacity="0.12"/>
  <line x1="860" y1="63" x2="860" y2="567" stroke="#333333" stroke-width="0.8" opacity="0.12"/>
  <circle cx="380" cy="360" r="28" fill="none" stroke="#333333" stroke-width="1.5" opacity="0.4"/>
  <circle cx="380" cy="360" r="10" fill="#333333" opacity="0.3"/>
  <circle cx="600" cy="290" r="35" fill="none" stroke="#A91C1C" stroke-width="2" opacity="0.7"/>
  <circle cx="600" cy="290" r="12" fill="#A91C1C" opacity="0.65"/>
  <circle cx="820" cy="350" r="25" fill="none" stroke="#333333" stroke-width="1.5" opacity="0.4"/>
  <circle cx="820" cy="350" r="8" fill="#333333" opacity="0.3"/>
  <circle cx="480" cy="420" r="18" fill="none" stroke="#333333" stroke-width="1.2" opacity="0.3"/>
  <circle cx="720" cy="430" r="18" fill="none" stroke="#333333" stroke-width="1.2" opacity="0.3"/>
</svg>
