<svg xmlns="http://www.w3.org/2000/svg" viewBox="0 0 1200 630">
  <defs>
    <radialGradient id="r1" cx="50%" cy="5%" r="62%">
      <stop offset="0%" stop-color="#A91C1C" stop-opacity="0.26"/>
      <stop offset="55%" stop-color="#A91C1C" stop-opacity="0.07"/>
      <stop offset="100%" stop-color="#A91C1C" stop-opacity="0"/>
    </radialGradient>
    <radialGradient id="g1" cx="5%" cy="90%" r="38%">
      <stop offset="0%" stop-color="#2F5731" stop-opacity="0.15"/>
      <stop offset="100%" stop-color="#2F5731" stop-opacity="0"/>
    </radialGradient>
  </defs>
  <rect width="1200" height="630" fill="#E2DBD0"/>
  <rect width="1200" height="630" fill="url(#r1)"/>
  <rect width="1200" height="630" fill="url(#g1)"/>
  <rect x="50" y="35" width="1100" height="560" fill="none" stroke="#A91C1C" stroke-width="1.5" opacity="0.15"/>
  <rect x="88" y="63" width="1024" height="504" fill="none" stroke="#333333" stroke-width="0.6" opacity="0.10"/>
  <circle cx="600" cy="315" r="55" fill="none" stroke="#A91C1C" stroke-width="1.5" opacity="0.4"/>
  <path d="M 600 260 A 55 55 0 1 1 599 260" fill="none" stroke="#A91C1C" stroke-width="2" opacity="0.6" stroke-dasharray="none"/>
  <polygon points="600,260 594,288 600,278 606,288" fill="#A91C1C" opacity="0.65"/>
  <rect x="330" y="245" width="130" height="80" rx="2" fill="none" stroke="#333333" stroke-width="1.5" opacity="0.5"/>
  <line x1="350" y1="270" x2="440" y2="270" stroke="#333333" stroke-width="1" opacity="0.3"/>
  <line x1="350" y1="285" x2="420" y2="285" stroke="#333333" stroke-width="1" opacity="0.25"/>
  <rect x="740" y="245" width="130" height="80" rx="2" fill="none" stroke="#333333" stroke-width="1.5" opacity="0.5"/>
  <line x1="760" y1="270" x2="850" y2="270" stroke="#333333" stroke-width="1" opacity="0.3"/>
  <line x1="760" y1="285" x2="830" y2="285" stroke="#333333" stroke-width="1" opacity="0.25"/>
  <line x1="460" y1="285" x2="545" y2="305" stroke="#333333" stroke-width="1" opacity="0.25"/>
  <line x1="740" y1="285" x2="655" y2="305" stroke="#333333" stroke-width="1" opacity="0.25"/>
  <rect x="480" y="420" width="240" height="65" rx="2" fill="none" stroke="#333333" stroke-width="1.2" opacity="0.35"/>
  <line x1="520" y1="441" x2="700" y2="441" stroke="#A91C1C" stroke-width="1" opacity="0.4"/>
  <line x1="520" y1="455" x2="680" y2="455" stroke="#333333" stroke-width="1" opacity="0.25"/>
</svg>
