<svg xmlns="http://www.w3.org/2000/svg" viewBox="0 0 1200 630">
  <rect width="1200" height="630" fill="#0d2137"/>
  <defs>
    <radialGradient id="rg" cx="50%" cy="50%" r="48%">
      <stop offset="0%" stop-color="#1a5276" stop-opacity="0.4"/>
      <stop offset="100%" stop-color="#0d2137" stop-opacity="0"/>
    </radialGradient>
  </defs>
  <rect width="1200" height="630" fill="url(#rg)"/>
  <path d="M 600 130 A 185 185 0 1 1 415 315" fill="none" stroke="#1a5276" stroke-width="2" opacity="0.45"/>
  <polygon points="415,315 395,270 415,295 440,270" fill="#1a5276" opacity="0.45"/>
  <path d="M 600 170 A 145 145 0 1 1 455 315" fill="none" stroke="#1a5276" stroke-width="1.5" opacity="0.35"/>
  <polygon points="455,315 438,278 455,300 475,278" fill="#1a5276" opacity="0.35"/>
  <path d="M 600 210 A 105 105 0 1 1 495 315" fill="none" stroke="#f0a500" stroke-width="2" opacity="0.6"/>
  <polygon points="495,315 480,285 495,307 513,285" fill="#f0a500" opacity="0.6"/>
  <circle cx="600" cy="130" r="10" fill="#1a5276" opacity="0.55"/>
  <circle cx="600" cy="170" r="9" fill="#1a5276" opacity="0.45"/>
  <circle cx="600" cy="210" r="8" fill="#f0a500" opacity="0.65"/>
  <circle cx="600" cy="315" r="18" fill="#f0a500" opacity="0.7"/>
  <circle cx="600" cy="315" r="8" fill="#0d2137"/>
</svg>
