<svg xmlns="http://www.w3.org/2000/svg" viewBox="0 0 1200 630">
  <defs>
    <radialGradient id="r1" cx="50%" cy="50%" r="55%">
      <stop offset="0%" stop-color="#A91C1C" stop-opacity="0.22"/>
      <stop offset="50%" stop-color="#A91C1C" stop-opacity="0.07"/>
      <stop offset="100%" stop-color="#A91C1C" stop-opacity="0"/>
    </radialGradient>
    <radialGradient id="g1" cx="5%" cy="95%" r="40%">
      <stop offset="0%" stop-color="#2F5731" stop-opacity="0.16"/>
      <stop offset="100%" stop-color="#2F5731" stop-opacity="0"/>
    </radialGradient>
  </defs>
  <rect width="1200" height="630" fill="#E2DBD0"/>
  <rect width="1200" height="630" fill="url(#r1)"/>
  <rect width="1200" height="630" fill="url(#g1)"/>
  <rect x="50" y="35" width="1100" height="560" fill="none" stroke="#A91C1C" stroke-width="1.5" opacity="0.15"/>
  <rect x="88" y="63" width="1024" height="504" fill="none" stroke="#333333" stroke-width="0.6" opacity="0.10"/>
  <circle cx="600" cy="315" r="130" fill="none" stroke="#333333" stroke-width="1.5" opacity="0.25"/>
  <line x1="600" y1="185" x2="600" y2="445" stroke="#333333" stroke-width="1" opacity="0.2"/>
  <line x1="470" y1="315" x2="730" y2="315" stroke="#333333" stroke-width="1" opacity="0.2"/>
  <line x1="508" y1="223" x2="692" y2="407" stroke="#333333" stroke-width="1" opacity="0.15"/>
  <line x1="692" y1="223" x2="508" y2="407" stroke="#333333" stroke-width="1" opacity="0.15"/>
  <circle cx="600" cy="185" r="14" fill="#A91C1C" opacity="0.65"/>
  <circle cx="712" cy="248" r="12" fill="#2F5731" opacity="0.6"/>
  <circle cx="730" cy="373" r="12" fill="#333333" opacity="0.45"/>
  <circle cx="600" cy="445" r="12" fill="#333333" opacity="0.45"/>
  <circle cx="470" cy="373" r="12" fill="#2F5731" opacity="0.55"/>
  <circle cx="488" cy="248" r="12" fill="#333333" opacity="0.45"/>
  <circle cx="600" cy="315" r="22" fill="none" stroke="#A91C1C" stroke-width="2" opacity="0.5"/>
  <circle cx="600" cy="315" r="8" fill="#A91C1C" opacity="0.55"/>
</svg>
