<svg xmlns="http://www.w3.org/2000/svg" viewBox="0 0 1200 630">
  <rect width="1200" height="630" fill="#0d2137"/>
  <defs>
    <radialGradient id="rg" cx="50%" cy="50%" r="55%">
      <stop offset="0%" stop-color="#1a5276" stop-opacity="0.35"/>
      <stop offset="100%" stop-color="#0d2137" stop-opacity="0"/>
    </radialGradient>
  </defs>
  <rect width="1200" height="630" fill="url(#rg)"/>
  <line x1="600" y1="315" x2="380" y2="160" stroke="#1a5276" stroke-width="1.5" opacity="0.4"/>
  <line x1="600" y1="315" x2="620" y2="130" stroke="#1a5276" stroke-width="1.5" opacity="0.4"/>
  <line x1="600" y1="315" x2="860" y2="175" stroke="#1a5276" stroke-width="1.5" opacity="0.4"/>
  <line x1="600" y1="315" x2="950" y2="340" stroke="#1a5276" stroke-width="1.5" opacity="0.4"/>
  <line x1="600" y1="315" x2="830" y2="490" stroke="#1a5276" stroke-width="1.5" opacity="0.4"/>
  <line x1="600" y1="315" x2="580" y2="510" stroke="#1a5276" stroke-width="1.5" opacity="0.4"/>
  <line x1="600" y1="315" x2="340" y2="470" stroke="#1a5276" stroke-width="1.5" opacity="0.4"/>
  <line x1="600" y1="315" x2="230" y2="300" stroke="#1a5276" stroke-width="1.5" opacity="0.4"/>
  <line x1="380" y1="160" x2="620" y2="130" stroke="#1a5276" stroke-width="0.8" opacity="0.2"/>
  <line x1="620" y1="130" x2="860" y2="175" stroke="#1a5276" stroke-width="0.8" opacity="0.2"/>
  <line x1="860" y1="175" x2="950" y2="340" stroke="#1a5276" stroke-width="0.8" opacity="0.2"/>
  <line x1="950" y1="340" x2="830" y2="490" stroke="#1a5276" stroke-width="0.8" opacity="0.2"/>
  <line x1="230" y1="300" x2="340" y2="470" stroke="#1a5276" stroke-width="0.8" opacity="0.2"/>
  <circle cx="380" cy="160" r="14" fill="#1a5276" opacity="0.6"/>
  <circle cx="620" cy="130" r="14" fill="#f0a500" opacity="0.55"/>
  <circle cx="860" cy="175" r="14" fill="#1a5276" opacity="0.55"/>
  <circle cx="950" cy="340" r="14" fill="#1a5276" opacity="0.55"/>
  <circle cx="830" cy="490" r="14" fill="#1a5276" opacity="0.5"/>
  <circle cx="580" cy="510" r="14" fill="#1a5276" opacity="0.5"/>
  <circle cx="340" cy="470" r="14" fill="#1a5276" opacity="0.5"/>
  <circle cx="230" cy="300" r="14" fill="#1a5276" opacity="0.55"/>
  <circle cx="600" cy="315" r="22" fill="#f0a500" opacity="0.8"/>
  <circle cx="600" cy="315" r="9" fill="#0d2137"/>
</svg>
