<svg xmlns="http://www.w3.org/2000/svg" viewBox="0 0 1200 630">
  <defs>
    <radialGradient id="r1" cx="5%" cy="95%" r="62%">
      <stop offset="0%" stop-color="#A91C1C" stop-opacity="0.28"/>
      <stop offset="58%" stop-color="#A91C1C" stop-opacity="0.07"/>
      <stop offset="100%" stop-color="#A91C1C" stop-opacity="0"/>
    </radialGradient>
    <radialGradient id="g1" cx="90%" cy="10%" r="35%">
      <stop offset="0%" stop-color="#2F5731" stop-opacity="0.12"/>
      <stop offset="100%" stop-color="#2F5731" stop-opacity="0"/>
    </radialGradient>
  </defs>
  <rect width="1200" height="630" fill="#E2DBD0"/>
  <rect width="1200" height="630" fill="url(#r1)"/>
  <rect width="1200" height="630" fill="url(#g1)"/>
  <rect x="50" y="35" width="1100" height="560" fill="none" stroke="#A91C1C" stroke-width="1.5" opacity="0.15"/>
  <rect x="88" y="63" width="1024" height="504" fill="none" stroke="#333333" stroke-width="0.6" opacity="0.10"/>
  <rect x="380" y="360" width="440" height="95" rx="2" fill="none" stroke="#A91C1C" stroke-width="2" opacity="0.6"/>
  <circle cx="430" cy="290" r="12" fill="#333333" opacity="0.35"/>
  <circle cx="490" cy="280" r="12" fill="#333333" opacity="0.35"/>
  <circle cx="550" cy="288" r="12" fill="#333333" opacity="0.35"/>
  <circle cx="610" cy="278" r="12" fill="#333333" opacity="0.35"/>
  <circle cx="670" cy="285" r="12" fill="#333333" opacity="0.35"/>
  <circle cx="730" cy="282" r="12" fill="#333333" opacity="0.35"/>
  <circle cx="790" cy="291" r="12" fill="#333333" opacity="0.35"/>
  <circle cx="430" cy="238" r="12" fill="#333333" opacity="0.28"/>
  <circle cx="490" cy="228" r="12" fill="#333333" opacity="0.28"/>
  <circle cx="550" cy="235" r="12" fill="#333333" opacity="0.28"/>
  <circle cx="610" cy="226" r="12" fill="#333333" opacity="0.28"/>
  <circle cx="670" cy="232" r="12" fill="#333333" opacity="0.28"/>
  <circle cx="730" cy="228" r="12" fill="#333333" opacity="0.28"/>
  <circle cx="790" cy="238" r="12" fill="#333333" opacity="0.28"/>
  <rect x="395" y="378" width="180" height="8" rx="1" fill="#A91C1C" opacity="0.5"/>
  <rect x="395" y="396" width="140" height="6" rx="1" fill="#333333" opacity="0.25"/>
  <rect x="395" y="410" width="160" height="6" rx="1" fill="#333333" opacity="0.2"/>
</svg>
