<svg xmlns="http://www.w3.org/2000/svg" viewBox="0 0 1200 630">
  <defs>
    <radialGradient id="r1" cx="5%" cy="95%" r="65%">
      <stop offset="0%" stop-color="#A91C1C" stop-opacity="0.30"/>
      <stop offset="55%" stop-color="#A91C1C" stop-opacity="0.07"/>
      <stop offset="100%" stop-color="#A91C1C" stop-opacity="0"/>
    </radialGradient>
    <radialGradient id="g1" cx="85%" cy="20%" r="40%">
      <stop offset="0%" stop-color="#2F5731" stop-opacity="0.18"/>
      <stop offset="100%" stop-color="#2F5731" stop-opacity="0"/>
    </radialGradient>
  </defs>
  <rect width="1200" height="630" fill="#E2DBD0"/>
  <rect width="1200" height="630" fill="url(#r1)"/>
  <rect width="1200" height="630" fill="url(#g1)"/>
  <rect x="50" y="35" width="1100" height="560" fill="none" stroke="#A91C1C" stroke-width="1.5" opacity="0.15"/>
  <rect x="88" y="63" width="1024" height="504" fill="none" stroke="#333333" stroke-width="0.6" opacity="0.10"/>
  <line x1="88" y1="420" x2="1112" y2="420" stroke="#333333" stroke-width="1.2" opacity="0.25"/>
  <polygon points="300,420 340,310 380,420" fill="none" stroke="#2F5731" stroke-width="1.5" opacity="0.65"/>
  <polygon points="400,420 450,275 500,420" fill="none" stroke="#2F5731" stroke-width="1.5" opacity="0.7"/>
  <polygon points="530,420 570,330 610,420" fill="none" stroke="#2F5731" stroke-width="1.2" opacity="0.55"/>
  <polygon points="700,420 755,295 810,420" fill="none" stroke="#2F5731" stroke-width="1.5" opacity="0.65"/>
  <rect x="830" y="358" width="120" height="62" rx="2" fill="none" stroke="#333333" stroke-width="1.5" opacity="0.45"/>
  <line x1="870" y1="420" x2="870" y2="358" stroke="#333333" stroke-width="1" opacity="0.3"/>
  <circle cx="310" cy="460" r="8" fill="#333333" opacity="0.4"/>
  <circle cx="350" cy="455" r="8" fill="#333333" opacity="0.4"/>
  <circle cx="390" cy="460" r="8" fill="#333333" opacity="0.35"/>
  <circle cx="440" cy="455" r="8" fill="#A91C1C" opacity="0.55"/>
  <circle cx="480" cy="460" r="8" fill="#333333" opacity="0.4"/>
  <circle cx="560" cy="458" r="8" fill="#333333" opacity="0.35"/>
  <line x1="310" y1="455" x2="480" y2="455" stroke="#333333" stroke-width="0.8" opacity="0.2"/>
</svg>
