<svg xmlns="http://www.w3.org/2000/svg" viewBox="0 0 1200 630">
  <defs>
    <radialGradient id="r1" cx="2%" cy="95%" r="62%">
      <stop offset="0%" stop-color="#A91C1C" stop-opacity="0.28"/>
      <stop offset="58%" stop-color="#A91C1C" stop-opacity="0.07"/>
      <stop offset="100%" stop-color="#A91C1C" stop-opacity="0"/>
    </radialGradient>
    <radialGradient id="g1" cx="95%" cy="10%" r="38%">
      <stop offset="0%" stop-color="#2F5731" stop-opacity="0.14"/>
      <stop offset="100%" stop-color="#2F5731" stop-opacity="0"/>
    </radialGradient>
  </defs>
  <rect width="1200" height="630" fill="#E2DBD0"/>
  <rect width="1200" height="630" fill="url(#r1)"/>
  <rect width="1200" height="630" fill="url(#g1)"/>
  <rect x="50" y="35" width="1100" height="560" fill="none" stroke="#A91C1C" stroke-width="1.5" opacity="0.15"/>
  <rect x="88" y="63" width="1024" height="504" fill="none" stroke="#333333" stroke-width="0.6" opacity="0.10"/>
  <circle cx="310" cy="315" r="18" fill="#A91C1C" opacity="0.6"/>
  <line x1="328" y1="315" x2="900" y2="200" stroke="#333333" stroke-width="1.8" opacity="0.4" stroke-linecap="round"/>
  <line x1="328" y1="315" x2="900" y2="270" stroke="#A91C1C" stroke-width="2" opacity="0.65" stroke-linecap="round"/>
  <line x1="328" y1="315" x2="900" y2="340" stroke="#333333" stroke-width="1.8" opacity="0.4" stroke-linecap="round"/>
  <line x1="328" y1="315" x2="900" y2="420" stroke="#333333" stroke-width="1.8" opacity="0.35" stroke-linecap="round"/>
  <polygon points="905,198 876,196 892,200 878,206" fill="#333333" opacity="0.4"/>
  <polygon points="905,268 876,262 892,268 876,274" fill="#A91C1C" opacity="0.7"/>
  <polygon points="905,338 876,336 892,340 878,346" fill="#333333" opacity="0.4"/>
  <polygon points="905,418 876,416 892,420 878,426" fill="#333333" opacity="0.35"/>
</svg>
