<svg xmlns="http://www.w3.org/2000/svg" viewBox="0 0 1200 630">
  <defs>
    <radialGradient id="r1" cx="95%" cy="50%" r="60%">
      <stop offset="0%" stop-color="#A91C1C" stop-opacity="0.26"/>
      <stop offset="55%" stop-color="#A91C1C" stop-opacity="0.06"/>
      <stop offset="100%" stop-color="#A91C1C" stop-opacity="0"/>
    </radialGradient>
    <radialGradient id="g1" cx="5%" cy="50%" r="35%">
      <stop offset="0%" stop-color="#2F5731" stop-opacity="0.13"/>
      <stop offset="100%" stop-color="#2F5731" stop-opacity="0"/>
    </radialGradient>
  </defs>
  <rect width="1200" height="630" fill="#E2DBD0"/>
  <rect width="1200" height="630" fill="url(#r1)"/>
  <rect width="1200" height="630" fill="url(#g1)"/>
  <rect x="50" y="35" width="1100" height="560" fill="none" stroke="#A91C1C" stroke-width="1.5" opacity="0.15"/>
  <rect x="88" y="63" width="1024" height="504" fill="none" stroke="#333333" stroke-width="0.6" opacity="0.10"/>
  <rect x="380" y="195" width="440" height="260" rx="3" fill="none" stroke="#333333" stroke-width="2" opacity="0.4"/>
  <rect x="400" y="215" width="400" height="220" rx="2" fill="none" stroke="#A91C1C" stroke-width="1.5" opacity="0.35"/>
  <line x1="420" y1="265" x2="780" y2="265" stroke="#333333" stroke-width="1" opacity="0.3"/>
  <line x1="420" y1="285" x2="700" y2="285" stroke="#333333" stroke-width="1" opacity="0.25"/>
  <line x1="420" y1="305" x2="740" y2="305" stroke="#333333" stroke-width="1" opacity="0.2"/>
  <line x1="420" y1="325" x2="680" y2="325" stroke="#333333" stroke-width="1" opacity="0.2"/>
  <polyline points="430,365 460,395 520,345" fill="none" stroke="#A91C1C" stroke-width="2.5" opacity="0.75" stroke-linecap="round" stroke-linejoin="round"/>
  <line x1="555" y1="365" x2="750" y2="365" stroke="#333333" stroke-width="1.2" opacity="0.3"/>
  <line x1="555" y1="385" x2="720" y2="385" stroke="#333333" stroke-width="1" opacity="0.22"/>
  <line x1="600" y1="455" x2="700" y2="455" stroke="#A91C1C" stroke-width="2" opacity="0.55"/>
  <line x1="600" y1="455" x2="600" y2="455" stroke="#333333" stroke-width="1" opacity="0.3"/>
</svg>
