<svg xmlns="http://www.w3.org/2000/svg" viewBox="0 0 1200 630">
  <rect width="1200" height="630" fill="#0d2137"/>
  <defs>
    <radialGradient id="rg" cx="50%" cy="50%" r="50%">
      <stop offset="0%" stop-color="#1a5276" stop-opacity="0.4"/>
      <stop offset="100%" stop-color="#0d2137" stop-opacity="0"/>
    </radialGradient>
  </defs>
  <rect width="1200" height="630" fill="url(#rg)"/>
  <line x1="600" y1="315" x2="600" y2="95" stroke="#f0a500" stroke-width="1.5" opacity="0.5"/>
  <line x1="600" y1="315" x2="800" y2="150" stroke="#f0a500" stroke-width="1.5" opacity="0.45"/>
  <line x1="600" y1="315" x2="920" y2="245" stroke="#1a5276" stroke-width="1.5" opacity="0.45"/>
  <line x1="600" y1="315" x2="960" y2="370" stroke="#1a5276" stroke-width="1.5" opacity="0.4"/>
  <line x1="600" y1="315" x2="820" y2="480" stroke="#1a5276" stroke-width="1.5" opacity="0.35"/>
  <line x1="600" y1="315" x2="600" y2="535" stroke="#1a5276" stroke-width="1.5" opacity="0.3"/>
  <line x1="600" y1="315" x2="380" y2="480" stroke="#1a5276" stroke-width="1.5" opacity="0.35"/>
  <line x1="600" y1="315" x2="240" y2="370" stroke="#1a5276" stroke-width="1.5" opacity="0.4"/>
  <line x1="600" y1="315" x2="280" y2="245" stroke="#1a5276" stroke-width="1.5" opacity="0.45"/>
  <line x1="600" y1="315" x2="400" y2="150" stroke="#f0a500" stroke-width="1.5" opacity="0.45"/>
  <circle cx="600" cy="95" r="8" fill="#f0a500" opacity="0.7"/>
  <circle cx="800" cy="150" r="7" fill="#f0a500" opacity="0.65"/>
  <circle cx="920" cy="245" r="7" fill="#1a5276" opacity="0.7"/>
  <circle cx="960" cy="370" r="7" fill="#1a5276" opacity="0.65"/>
  <circle cx="820" cy="480" r="7" fill="#1a5276" opacity="0.6"/>
  <circle cx="600" cy="535" r="7" fill="#1a5276" opacity="0.55"/>
  <circle cx="380" cy="480" r="7" fill="#1a5276" opacity="0.6"/>
  <circle cx="240" cy="370" r="7" fill="#1a5276" opacity="0.65"/>
  <circle cx="280" cy="245" r="7" fill="#1a5276" opacity="0.7"/>
  <circle cx="400" cy="150" r="7" fill="#f0a500" opacity="0.65"/>
  <circle cx="600" cy="315" r="18" fill="#f0a500" opacity="0.85"/>
  <circle cx="600" cy="315" r="8" fill="#0d2137"/>
</svg>
