<svg xmlns="http://www.w3.org/2000/svg" viewBox="0 0 1200 630">
  <defs>
    <radialGradient id="r1" cx="95%" cy="5%" r="60%">
      <stop offset="0%" stop-color="#A91C1C" stop-opacity="0.26"/>
      <stop offset="55%" stop-color="#A91C1C" stop-opacity="0.07"/>
      <stop offset="100%" stop-color="#A91C1C" stop-opacity="0"/>
    </radialGradient>
    <radialGradient id="g1" cx="5%" cy="95%" r="38%">
      <stop offset="0%" stop-color="#2F5731" stop-opacity="0.15"/>
      <stop offset="100%" stop-color="#2F5731" stop-opacity="0"/>
    </radialGradient>
  </defs>
  <rect width="1200" height="630" fill="#E2DBD0"/>
  <rect width="1200" height="630" fill="url(#r1)"/>
  <rect width="1200" height="630" fill="url(#g1)"/>
  <rect x="50" y="35" width="1100" height="560" fill="none" stroke="#A91C1C" stroke-width="1.5" opacity="0.15"/>
  <rect x="88" y="63" width="1024" height="504" fill="none" stroke="#333333" stroke-width="0.6" opacity="0.10"/>
  <circle cx="600" cy="315" r="155" fill="none" stroke="#333333" stroke-width="1.5" opacity="0.25"/>
  <path d="M 600 160 A 155 155 0 0 1 755 315" fill="none" stroke="#A91C1C" stroke-width="2.5" opacity="0.7" stroke-linecap="round"/>
  <path d="M 755 315 A 155 155 0 0 1 600 470" fill="none" stroke="#333333" stroke-width="2" opacity="0.5" stroke-linecap="round"/>
  <path d="M 600 470 A 155 155 0 0 1 445 315" fill="none" stroke="#2F5731" stroke-width="2" opacity="0.5" stroke-linecap="round"/>
  <path d="M 445 315 A 155 155 0 0 1 600 160" fill="none" stroke="#333333" stroke-width="2" opacity="0.45" stroke-linecap="round"/>
  <polygon points="600,160 580,192 600,178 620,192" fill="#A91C1C" opacity="0.7"/>
  <circle cx="600" cy="160" r="8" fill="#A91C1C" opacity="0.7"/>
  <circle cx="755" cy="315" r="8" fill="#333333" opacity="0.5"/>
  <circle cx="600" cy="470" r="8" fill="#2F5731" opacity="0.6"/>
  <circle cx="445" cy="315" r="8" fill="#333333" opacity="0.5"/>
  <circle cx="600" cy="315" r="12" fill="#333333" opacity="0.2"/>
</svg>
