<svg xmlns="http://www.w3.org/2000/svg" viewBox="0 0 1200 630">
  <defs>
    <radialGradient id="r1" cx="2%" cy="50%" r="58%">
      <stop offset="0%" stop-color="#A91C1C" stop-opacity="0.26"/>
      <stop offset="55%" stop-color="#A91C1C" stop-opacity="0.06"/>
      <stop offset="100%" stop-color="#A91C1C" stop-opacity="0"/>
    </radialGradient>
    <radialGradient id="g1" cx="95%" cy="50%" r="38%">
      <stop offset="0%" stop-color="#2F5731" stop-opacity="0.13"/>
      <stop offset="100%" stop-color="#2F5731" stop-opacity="0"/>
    </radialGradient>
  </defs>
  <rect width="1200" height="630" fill="#E2DBD0"/>
  <rect width="1200" height="630" fill="url(#r1)"/>
  <rect width="1200" height="630" fill="url(#g1)"/>
  <rect x="50" y="35" width="1100" height="560" fill="none" stroke="#A91C1C" stroke-width="1.5" opacity="0.15"/>
  <rect x="88" y="63" width="1024" height="504" fill="none" stroke="#333333" stroke-width="0.6" opacity="0.10"/>
  <circle cx="600" cy="315" r="38" fill="none" stroke="#A91C1C" stroke-width="2" opacity="0.6"/>
  <circle cx="600" cy="315" r="12" fill="#A91C1C" opacity="0.65"/>
  <line x1="600" y1="315" x2="430" y2="200" stroke="#333333" stroke-width="1.5" opacity="0.4"/>
  <line x1="600" y1="315" x2="760" y2="200" stroke="#333333" stroke-width="1.5" opacity="0.4"/>
  <line x1="600" y1="315" x2="810" y2="340" stroke="#333333" stroke-width="1.5" opacity="0.4"/>
  <line x1="600" y1="315" x2="700" y2="455" stroke="#333333" stroke-width="1.5" opacity="0.35"/>
  <line x1="600" y1="315" x2="450" y2="455" stroke="#333333" stroke-width="1.5" opacity="0.35"/>
  <line x1="600" y1="315" x2="370" y2="330" stroke="#333333" stroke-width="1.5" opacity="0.4"/>
  <rect x="395" y="175" width="70" height="50" rx="2" fill="none" stroke="#333333" stroke-width="1.5" opacity="0.5"/>
  <rect x="725" y="175" width="70" height="50" rx="2" fill="none" stroke="#333333" stroke-width="1.5" opacity="0.5"/>
  <rect x="790" y="315" width="60" height="50" rx="2" fill="none" stroke="#333333" stroke-width="1.5" opacity="0.45"/>
  <rect x="660" y="430" width="70" height="50" rx="2" fill="none" stroke="#333333" stroke-width="1.5" opacity="0.45"/>
  <rect x="420" y="430" width="70" height="50" rx="2" fill="none" stroke="#A91C1C" stroke-width="1.5" opacity="0.55"/>
  <rect x="322" y="305" width="70" height="50" rx="2" fill="none" stroke="#333333" stroke-width="1.5" opacity="0.5"/>
</svg>
