<svg xmlns="http://www.w3.org/2000/svg" viewBox="0 0 1200 630">
  <defs>
    <radialGradient id="r1" cx="5%" cy="95%" r="60%">
      <stop offset="0%" stop-color="#A91C1C" stop-opacity="0.28"/>
      <stop offset="58%" stop-color="#A91C1C" stop-opacity="0.07"/>
      <stop offset="100%" stop-color="#A91C1C" stop-opacity="0"/>
    </radialGradient>
    <radialGradient id="g1" cx="90%" cy="10%" r="35%">
      <stop offset="0%" stop-color="#2F5731" stop-opacity="0.13"/>
      <stop offset="100%" stop-color="#2F5731" stop-opacity="0"/>
    </radialGradient>
  </defs>
  <rect width="1200" height="630" fill="#E2DBD0"/>
  <rect width="1200" height="630" fill="url(#r1)"/>
  <rect width="1200" height="630" fill="url(#g1)"/>
  <rect x="50" y="35" width="1100" height="560" fill="none" stroke="#A91C1C" stroke-width="1.5" opacity="0.15"/>
  <rect x="88" y="63" width="1024" height="504" fill="none" stroke="#333333" stroke-width="0.6" opacity="0.10"/>
  <line x1="240" y1="450" x2="960" y2="450" stroke="#333333" stroke-width="2" opacity="0.4" stroke-linecap="round"/>
  <rect x="270" y="240" width="72" height="210" rx="2" fill="none" stroke="#333333" stroke-width="1.5" opacity="0.5"/>
  <rect x="390" y="200" width="72" height="250" rx="2" fill="none" stroke="#A91C1C" stroke-width="2" opacity="0.75"/>
  <rect x="510" y="220" width="72" height="230" rx="2" fill="none" stroke="#333333" stroke-width="1.5" opacity="0.5"/>
  <rect x="630" y="210" width="72" height="240" rx="2" fill="none" stroke="#333333" stroke-width="1.5" opacity="0.5"/>
  <rect x="750" y="230" width="72" height="220" rx="2" fill="none" stroke="#333333" stroke-width="1.5" opacity="0.5"/>
  <rect x="870" y="245" width="72" height="205" rx="2" fill="none" stroke="#333333" stroke-width="1.5" opacity="0.45"/>
  <line x1="240" y1="450" x2="960" y2="450" stroke="#A91C1C" stroke-width="2" opacity="0.35"/>
  <line x1="220" y1="465" x2="980" y2="465" stroke="#333333" stroke-width="1" opacity="0.2"/>
</svg>
