<svg xmlns="http://www.w3.org/2000/svg" viewBox="0 0 1200 630">
  <defs>
    <radialGradient id="r1" cx="2%" cy="50%" r="58%">
      <stop offset="0%" stop-color="#A91C1C" stop-opacity="0.26"/>
      <stop offset="55%" stop-color="#A91C1C" stop-opacity="0.06"/>
      <stop offset="100%" stop-color="#A91C1C" stop-opacity="0"/>
    </radialGradient>
    <radialGradient id="g1" cx="95%" cy="90%" r="32%">
      <stop offset="0%" stop-color="#2F5731" stop-opacity="0.13"/>
      <stop offset="100%" stop-color="#2F5731" stop-opacity="0"/>
    </radialGradient>
  </defs>
  <rect width="1200" height="630" fill="#E2DBD0"/>
  <rect width="1200" height="630" fill="url(#r1)"/>
  <rect width="1200" height="630" fill="url(#g1)"/>
  <rect x="50" y="35" width="1100" height="560" fill="none" stroke="#A91C1C" stroke-width="1.5" opacity="0.15"/>
  <rect x="88" y="63" width="1024" height="504" fill="none" stroke="#333333" stroke-width="0.6" opacity="0.10"/>
  <polyline points="220,315 450,315 620,200 820,200 960,270" fill="none" stroke="#333333" stroke-width="2" opacity="0.55" stroke-linecap="round" stroke-linejoin="round"/>
  <polyline points="620,200 820,420 960,390" fill="none" stroke="#333333" stroke-width="2" opacity="0.35" stroke-linecap="round" stroke-linejoin="round"/>
  <circle cx="220" cy="315" r="9" fill="#333333" opacity="0.4"/>
  <circle cx="450" cy="315" r="9" fill="#333333" opacity="0.5"/>
  <circle cx="620" cy="200" r="12" fill="#A91C1C" opacity="0.8"/>
  <circle cx="820" cy="200" r="9" fill="#333333" opacity="0.4"/>
  <circle cx="820" cy="420" r="9" fill="#333333" opacity="0.35"/>
  <rect x="840" y="178" width="68" height="22" rx="2" fill="none" stroke="#A91C1C" stroke-width="1.2" opacity="0.5"/>
  <rect x="840" y="398" width="68" height="22" rx="2" fill="none" stroke="#333333" stroke-width="1.2" opacity="0.3"/>
  <polygon points="965,270 944,262 952,270 944,278" fill="#A91C1C" opacity="0.7"/>
  <polygon points="965,390 944,382 952,390 944,398" fill="#333333" opacity="0.4"/>
</svg>
