<svg xmlns="http://www.w3.org/2000/svg" viewBox="0 0 1200 630">
  <rect width="1200" height="630" fill="#0d2137"/>
  <defs>
    <radialGradient id="rg" cx="50%" cy="30%" r="55%">
      <stop offset="0%" stop-color="#1a5276" stop-opacity="0.4"/>
      <stop offset="100%" stop-color="#0d2137" stop-opacity="0"/>
    </radialGradient>
  </defs>
  <rect width="1200" height="630" fill="url(#rg)"/>
  <circle cx="600" cy="140" r="28" fill="#f0a500" opacity="0.75"/>
  <circle cx="600" cy="140" r="12" fill="#0d2137"/>
  <line x1="600" y1="168" x2="350" y2="285" stroke="#1a5276" stroke-width="1.5" opacity="0.5"/>
  <line x1="600" y1="168" x2="600" y2="285" stroke="#1a5276" stroke-width="1.5" opacity="0.5"/>
  <line x1="600" y1="168" x2="850" y2="285" stroke="#1a5276" stroke-width="1.5" opacity="0.5"/>
  <circle cx="350" cy="300" r="22" fill="#1a5276" opacity="0.6"/>
  <circle cx="600" cy="300" r="22" fill="#1a5276" opacity="0.6"/>
  <circle cx="850" cy="300" r="22" fill="#1a5276" opacity="0.6"/>
  <line x1="350" y1="322" x2="220" y2="430" stroke="#1a5276" stroke-width="1.2" opacity="0.4"/>
  <line x1="350" y1="322" x2="350" y2="430" stroke="#1a5276" stroke-width="1.2" opacity="0.4"/>
  <line x1="600" y1="322" x2="510" y2="430" stroke="#1a5276" stroke-width="1.2" opacity="0.4"/>
  <line x1="600" y1="322" x2="690" y2="430" stroke="#1a5276" stroke-width="1.2" opacity="0.4"/>
  <line x1="850" y1="322" x2="760" y2="430" stroke="#1a5276" stroke-width="1.2" opacity="0.35"/>
  <line x1="850" y1="322" x2="850" y2="430" stroke="#1a5276" stroke-width="1.2" opacity="0.35"/>
  <line x1="850" y1="322" x2="980" y2="430" stroke="#1a5276" stroke-width="1.2" opacity="0.35"/>
  <circle cx="220" cy="442" r="15" fill="#1a5276" opacity="0.4"/>
  <circle cx="350" cy="442" r="15" fill="#1a5276" opacity="0.4"/>
  <circle cx="510" cy="442" r="15" fill="#1a5276" opacity="0.35"/>
  <circle cx="690" cy="442" r="15" fill="#1a5276" opacity="0.35"/>
  <circle cx="760" cy="442" r="15" fill="#1a5276" opacity="0.3"/>
  <circle cx="850" cy="442" r="15" fill="#1a5276" opacity="0.3"/>
  <circle cx="980" cy="442" r="15" fill="#1a5276" opacity="0.3"/>
</svg>
