<svg xmlns="http://www.w3.org/2000/svg" viewBox="0 0 1200 630">
  <rect width="1200" height="630" fill="#0d2137"/>
  <defs>
    <radialGradient id="rg" cx="50%" cy="50%" r="50%">
      <stop offset="0%" stop-color="#1a5276" stop-opacity="0.4"/>
      <stop offset="100%" stop-color="#0d2137" stop-opacity="0"/>
    </radialGradient>
  </defs>
  <rect width="1200" height="630" fill="url(#rg)"/>
  <circle cx="600" cy="315" r="200" fill="none" stroke="#1a5276" stroke-width="1" opacity="0.3"/>
  <circle cx="600" cy="115" r="22" fill="#f0a500" opacity="0.7"/>
  <line x1="600" y1="115" x2="600" y2="293" stroke="#1a5276" stroke-width="1" opacity="0.3"/>
  <circle cx="800" cy="174" r="22" fill="#1a5276" opacity="0.55"/>
  <line x1="800" y1="174" x2="622" y2="303" stroke="#1a5276" stroke-width="1" opacity="0.3"/>
  <circle cx="900" cy="355" r="22" fill="#1a5276" opacity="0.5"/>
  <line x1="900" y1="355" x2="702" y2="322" stroke="#1a5276" stroke-width="1" opacity="0.3"/>
  <circle cx="788" cy="506" r="22" fill="#1a5276" opacity="0.45"/>
  <line x1="788" y1="506" x2="638" y2="337" stroke="#1a5276" stroke-width="1" opacity="0.3"/>
  <circle cx="600" cy="515" r="22" fill="#1a5276" opacity="0.45"/>
  <line x1="600" y1="515" x2="600" y2="337" stroke="#1a5276" stroke-width="1" opacity="0.3"/>
  <circle cx="412" cy="506" r="22" fill="#1a5276" opacity="0.45"/>
  <line x1="412" y1="506" x2="562" y2="337" stroke="#1a5276" stroke-width="1" opacity="0.3"/>
  <circle cx="300" cy="355" r="22" fill="#1a5276" opacity="0.5"/>
  <line x1="300" y1="355" x2="498" y2="322" stroke="#1a5276" stroke-width="1" opacity="0.3"/>
  <circle cx="400" cy="174" r="22" fill="#1a5276" opacity="0.55"/>
  <line x1="400" y1="174" x2="578" y2="303" stroke="#1a5276" stroke-width="1" opacity="0.3"/>
  <circle cx="600" cy="315" r="30" fill="#f0a500" opacity="0.65"/>
  <circle cx="600" cy="315" r="14" fill="#0d2137"/>
  <circle cx="600" cy="315" r="6" fill="#f0a500" opacity="0.9"/>
</svg>
