<svg xmlns="http://www.w3.org/2000/svg" viewBox="0 0 1200 630">
  <defs>
    <radialGradient id="r1" cx="5%" cy="95%" r="62%">
      <stop offset="0%" stop-color="#A91C1C" stop-opacity="0.28"/>
      <stop offset="58%" stop-color="#A91C1C" stop-opacity="0.07"/>
      <stop offset="100%" stop-color="#A91C1C" stop-opacity="0"/>
    </radialGradient>
    <radialGradient id="g1" cx="70%" cy="15%" r="38%">
      <stop offset="0%" stop-color="#2F5731" stop-opacity="0.18"/>
      <stop offset="100%" stop-color="#2F5731" stop-opacity="0"/>
    </radialGradient>
  </defs>
  <rect width="1200" height="630" fill="#E2DBD0"/>
  <rect width="1200" height="630" fill="url(#r1)"/>
  <rect width="1200" height="630" fill="url(#g1)"/>
  <rect x="50" y="35" width="1100" height="560" fill="none" stroke="#A91C1C" stroke-width="1.5" opacity="0.15"/>
  <rect x="88" y="63" width="1024" height="504" fill="none" stroke="#333333" stroke-width="0.6" opacity="0.10"/>
  <line x1="600" y1="480" x2="600" y2="220" stroke="#2F5731" stroke-width="2.5" opacity="0.7" stroke-linecap="round"/>
  <line x1="600" y1="260" x2="460" y2="195" stroke="#2F5731" stroke-width="2" opacity="0.6" stroke-linecap="round"/>
  <line x1="600" y1="260" x2="740" y2="195" stroke="#2F5731" stroke-width="2" opacity="0.6" stroke-linecap="round"/>
  <line x1="600" y1="310" x2="420" y2="285" stroke="#2F5731" stroke-width="1.5" opacity="0.5" stroke-linecap="round"/>
  <line x1="600" y1="310" x2="780" y2="285" stroke="#2F5731" stroke-width="1.5" opacity="0.5" stroke-linecap="round"/>
  <line x1="600" y1="360" x2="460" y2="375" stroke="#2F5731" stroke-width="1.2" opacity="0.4" stroke-linecap="round"/>
  <line x1="600" y1="360" x2="740" y2="375" stroke="#2F5731" stroke-width="1.2" opacity="0.4" stroke-linecap="round"/>
  <line x1="540" y1="480" x2="660" y2="480" stroke="#333333" stroke-width="2" opacity="0.35" stroke-linecap="round"/>
  <line x1="510" y1="500" x2="690" y2="500" stroke="#333333" stroke-width="1.5" opacity="0.25" stroke-linecap="round"/>
  <circle cx="460" cy="195" r="7" fill="#A91C1C" opacity="0.7"/>
  <circle cx="740" cy="195" r="7" fill="#A91C1C" opacity="0.7"/>
  <circle cx="420" cy="285" r="7" fill="#2F5731" opacity="0.65"/>
  <circle cx="780" cy="285" r="7" fill="#2F5731" opacity="0.65"/>
  <circle cx="460" cy="375" r="7" fill="#2F5731" opacity="0.5"/>
  <circle cx="740" cy="375" r="7" fill="#2F5731" opacity="0.5"/>
</svg>
