<svg xmlns="http://www.w3.org/2000/svg" viewBox="0 0 1200 630">
  <defs>
    <radialGradient id="r1" cx="2%" cy="60%" r="60%">
      <stop offset="0%" stop-color="#A91C1C" stop-opacity="0.28"/>
      <stop offset="58%" stop-color="#A91C1C" stop-opacity="0.07"/>
      <stop offset="100%" stop-color="#A91C1C" stop-opacity="0"/>
    </radialGradient>
    <radialGradient id="g1" cx="95%" cy="40%" r="35%">
      <stop offset="0%" stop-color="#2F5731" stop-opacity="0.13"/>
      <stop offset="100%" stop-color="#2F5731" stop-opacity="0"/>
    </radialGradient>
  </defs>
  <rect width="1200" height="630" fill="#E2DBD0"/>
  <rect width="1200" height="630" fill="url(#r1)"/>
  <rect width="1200" height="630" fill="url(#g1)"/>
  <rect x="50" y="35" width="1100" height="560" fill="none" stroke="#A91C1C" stroke-width="1.5" opacity="0.15"/>
  <rect x="88" y="63" width="1024" height="504" fill="none" stroke="#333333" stroke-width="0.6" opacity="0.10"/>
  <circle cx="210" cy="315" r="30" fill="none" stroke="#2F5731" stroke-width="2" opacity="0.65"/>
  <circle cx="210" cy="315" r="10" fill="#2F5731" opacity="0.55"/>
  <rect x="420" y="275" width="130" height="80" rx="2" fill="none" stroke="#333333" stroke-width="1.5" opacity="0.5"/>
  <line x1="440" y1="300" x2="530" y2="300" stroke="#333333" stroke-width="1" opacity="0.35"/>
  <line x1="440" y1="314" x2="510" y2="314" stroke="#333333" stroke-width="1" opacity="0.28"/>
  <line x1="440" y1="328" x2="520" y2="328" stroke="#333333" stroke-width="1" opacity="0.22"/>
  <rect x="700" y="255" width="160" height="100" rx="2" fill="none" stroke="#A91C1C" stroke-width="2" opacity="0.7"/>
  <line x1="720" y1="280" x2="840" y2="280" stroke="#A91C1C" stroke-width="1.2" opacity="0.55"/>
  <line x1="720" y1="295" x2="820" y2="295" stroke="#A91C1C" stroke-width="1" opacity="0.4"/>
  <line x1="720" y1="310" x2="840" y2="310" stroke="#333333" stroke-width="1" opacity="0.3"/>
  <line x1="720" y1="324" x2="800" y2="324" stroke="#333333" stroke-width="1" opacity="0.25"/>
  <line x1="240" y1="315" x2="420" y2="315" stroke="#A91C1C" stroke-width="1.8" opacity="0.55" stroke-linecap="round"/>
  <line x1="550" y1="315" x2="700" y2="305" stroke="#A91C1C" stroke-width="1.8" opacity="0.55" stroke-linecap="round"/>
  <polygon points="698,304 678,298 686,306 678,314" fill="#A91C1C" opacity="0.65"/>
</svg>
