<svg xmlns="http://www.w3.org/2000/svg" viewBox="0 0 1200 630">
  <defs>
    <radialGradient id="r1" cx="50%" cy="5%" r="60%">
      <stop offset="0%" stop-color="#A91C1C" stop-opacity="0.26"/>
      <stop offset="55%" stop-color="#A91C1C" stop-opacity="0.07"/>
      <stop offset="100%" stop-color="#A91C1C" stop-opacity="0"/>
    </radialGradient>
    <radialGradient id="g1" cx="50%" cy="95%" r="38%">
      <stop offset="0%" stop-color="#2F5731" stop-opacity="0.12"/>
      <stop offset="100%" stop-color="#2F5731" stop-opacity="0"/>
    </radialGradient>
  </defs>
  <rect width="1200" height="630" fill="#E2DBD0"/>
  <rect width="1200" height="630" fill="url(#r1)"/>
  <rect width="1200" height="630" fill="url(#g1)"/>
  <rect x="50" y="35" width="1100" height="560" fill="none" stroke="#A91C1C" stroke-width="1.5" opacity="0.15"/>
  <rect x="88" y="63" width="1024" height="504" fill="none" stroke="#333333" stroke-width="0.6" opacity="0.10"/>
  <line x1="600" y1="190" x2="600" y2="420" stroke="#333333" stroke-width="1.5" opacity="0.4"/>
  <line x1="410" y1="310" x2="790" y2="310" stroke="#333333" stroke-width="1.5" opacity="0.4"/>
  <rect x="410" y="295" width="72" height="60" rx="1" fill="none" stroke="#333333" stroke-width="1.5" opacity="0.5"/>
  <rect x="718" y="295" width="72" height="60" rx="1" fill="none" stroke="#333333" stroke-width="1.5" opacity="0.5"/>
  <rect x="470" y="200" width="260" height="90" rx="2" fill="none" stroke="#A91C1C" stroke-width="1.5" opacity="0.55"/>
  <line x1="500" y1="228" x2="700" y2="228" stroke="#A91C1C" stroke-width="1" opacity="0.45"/>
  <line x1="500" y1="244" x2="680" y2="244" stroke="#333333" stroke-width="1" opacity="0.3"/>
  <line x1="500" y1="260" x2="690" y2="260" stroke="#333333" stroke-width="1" opacity="0.25"/>
  <line x1="560" y1="420" x2="640" y2="420" stroke="#A91C1C" stroke-width="2" opacity="0.5"/>
  <line x1="600" y1="420" x2="600" y2="455" stroke="#333333" stroke-width="1.5" opacity="0.3"/>
  <rect x="560" y="455" width="80" height="38" rx="1" fill="none" stroke="#333333" stroke-width="1.2" opacity="0.35"/>
</svg>
