<svg xmlns="http://www.w3.org/2000/svg" viewBox="0 0 1200 630">
  <defs>
    <radialGradient id="r1" cx="95%" cy="95%" r="60%">
      <stop offset="0%" stop-color="#A91C1C" stop-opacity="0.26"/>
      <stop offset="55%" stop-color="#A91C1C" stop-opacity="0.07"/>
      <stop offset="100%" stop-color="#A91C1C" stop-opacity="0"/>
    </radialGradient>
    <radialGradient id="g1" cx="5%" cy="5%" r="38%">
      <stop offset="0%" stop-color="#2F5731" stop-opacity="0.13"/>
      <stop offset="100%" stop-color="#2F5731" stop-opacity="0"/>
    </radialGradient>
  </defs>
  <rect width="1200" height="630" fill="#E2DBD0"/>
  <rect width="1200" height="630" fill="url(#r1)"/>
  <rect width="1200" height="630" fill="url(#g1)"/>
  <rect x="50" y="35" width="1100" height="560" fill="none" stroke="#A91C1C" stroke-width="1.5" opacity="0.15"/>
  <rect x="88" y="63" width="1024" height="504" fill="none" stroke="#333333" stroke-width="0.6" opacity="0.10"/>
  <rect x="300" y="220" width="600" height="200" rx="3" fill="none" stroke="#333333" stroke-width="2" opacity="0.4"/>
  <line x1="300" y1="260" x2="900" y2="260" stroke="#A91C1C" stroke-width="1.5" opacity="0.4"/>
  <circle cx="360" cy="195" r="22" fill="none" stroke="#333333" stroke-width="1.5" opacity="0.4"/>
  <circle cx="840" cy="195" r="22" fill="none" stroke="#333333" stroke-width="1.5" opacity="0.4"/>
  <rect x="325" y="280" width="250" height="8" rx="1" fill="#A91C1C" opacity="0.5"/>
  <rect x="325" y="298" width="200" height="6" rx="1" fill="#333333" opacity="0.3"/>
  <rect x="325" y="312" width="230" height="6" rx="1" fill="#333333" opacity="0.25"/>
  <rect x="325" y="326" width="180" height="6" rx="1" fill="#333333" opacity="0.22"/>
  <rect x="325" y="340" width="210" height="6" rx="1" fill="#333333" opacity="0.2"/>
  <rect x="640" y="280" width="200" height="80" rx="2" fill="none" stroke="#333333" stroke-width="1.2" opacity="0.3"/>
  <line x1="660" y1="300" x2="820" y2="300" stroke="#333333" stroke-width="0.8" opacity="0.25"/>
  <line x1="660" y1="315" x2="800" y2="315" stroke="#333333" stroke-width="0.8" opacity="0.2"/>
  <line x1="660" y1="330" x2="810" y2="330" stroke="#333333" stroke-width="0.8" opacity="0.18"/>
</svg>
