<svg version="1.1" xmlns="http://www.w3.org/2000/svg" viewBox="0 0 631 426" width="631" height="426"><!-- svg-source:excalidraw --><metadata><!-- payload-type:application/vnd.excalidraw+json --><!-- payload-version:2 --><!-- payload-start -->eyJ2ZXJzaW9uIjoiMSIsImVuY29kaW5nIjoiYnN0cmluZyIsImNvbXByZXNzZWQiOnRydWUsImVuY29kZWQiOiJ4nO1abVPbSFx1MDAxMv7Or6B8X2PvvEuTb5DAht0sIVx1MDAxMNjcXm1tXHRpsCfIkiPJXHUwMDE4kuK/30jYXHUwMDFhtSxcdTAwMTgrcSp7ezFVlDXq1vR099P9zMifd3Z3XHUwMDA3xd1MXHKe71x1MDAwZdRtXHUwMDE4xDrKgsXgWTl+o7JcXKeJuUWq6zydZ2ElOSmKWf78p5+C2Ww01sVlml6PwnT6oKZiNVVJkVx1MDAxYsH/mOvd3c/Vf3NHR6VyPD19s/iUnV/8XHUwMDE1fPhcdTAwMTifRy9cdTAwMGb2Jm8r1UpoZU2mwlwiSMaxsrduzbhkvL6+M9fUp/X1QkfFxIxxXHUwMDBm12NcdTAwMTOlx5PCXGZiT9aDXHUwMDBmz32+i+qRvMjSa/VcIo3TrJz8X1fVx059XHUwMDE5hNfjLJ0nUVMmlKG0Mlc6js+Ku+rJgzBL83w4XHSKcDJozfL70kzcXHUwMDFhr3Xz1ITBaplpx5NE5TnQSWdBqIvSXHUwMDA1XHUwMDE42XWUNs6Oosr5f1rLsmCqjkrvJ/M4rod1XHUwMDEyqdKng1x1MDAwMIHZkmg5XHUwMDFikM6Viio/XHUwMDEy6lx1MDAwYkKxnbSRKMRrj1x1MDAxZadJlTSc+lx1MDAxZZNcXFx1MDAxMDt9/tLkSlE99SqIc2W9Xdpw0Mgju5T5LFxuiqUhno+F+TOTWrfEOrluW1x1MDAxZafhtZ2lXHUwMDFhvX/WlZp/LC5eXHUwMDFmSylvc1x1MDAxNXinb0O+/+GAbZyaXHUwMDE4SVx1MDAwMXKTUb6Wm4SLXHUwMDExan7EeqoytnmmXHUwMDE2WZDksyAznno6W1x1MDAxNaKY4keytZVxX5+n6NvkKe7O01VcdTAwMThtjOhy5H4tfVx0XHUwMDEyyDiC+13pK1x1MDAxZk1fTFx1MDAxOSOepJx9Sf7W9llLXHUwMDFi+VSoW1x1MDAxYrxGOlx1MDAwZd9cdTAwMWRcdTAwMTB0c346PTz+8JGcjkUsXHUwMDEyf1DL3T/rfuyDcqHzi1x1MDAxN8RfXGZcdTAwMTc6+X08XHUwMDFmzvfVv+/gLKv5gyxLXHUwMDE3jecuvz1cdTAwMDE6T2LRyNyvXHUwMDAyXfcq10BcdTAwMDec9IA3Y8PIZ1xiMekxKjihXHUwMDEwfUyMyFx1MDAxYf4wXHUwMDExI4qlRIibr5LTjlZB8EhsjsCNesU/XHUwMDAzfVx1MDAxNz3aXHUwMDA081xiM73CY10442vNY4UzXCJMf0FcdTAwMDRtu030zlibgGXimeW/1CZcdTAwMDD6usjz4i5TRlwiaYQzTYoz/akqXHUwMDE0XHUwMDAyjFx1MDAxZVx1MDAwNlNcdTAwMWSX/lx1MDAxN+CBe7FcdTAwMWUnXHUwMDE1TzC2q2zQdEehXHJcdTAwMGarXHUwMDA1pjqKmp0mNFx1MDAwZlxydKKyo01aVprpsU6C+N1cdTAwMDaLXGLmRXqq8odlXHUwMDE02VxcNb2lXtVEakT5XHUwMDEzcP4l0D/vv/2UpdmQXHUwMDFmnVx0nJ6/XG7PNu+hxIP8jlx0S9tqXGZcdTAwMGJbvG3TtCn1XHUwMDAzsjVkydc3TIRccmlDjDRTdIVjvNZFLY4pp1xmN1x1MDAwNL55u3yP31x1MDAxZnpvJn/p6OQwuNGfrlx1MDAwZdiB6tnWfF9siUt2W7NJW6OEjpDvI8q5T1mbU3p+R1fz8MgnVFx1MDAxMt+nXHUwMDE0IbOWXHUwMDFmTW1lk1x1MDAxMyE9mponXHUwMDA1wZiiLizgxsa0hVx1MDAwNY+brFwilIgvwcI203Wtp51kpt5Hej79O7QyR+dot7JcdTAwMGXbt9PBnmbOLdbc6l6EjZDZ4kHI+rxcdTAwMDG9eiNoRLmBqlxcfWz62DNcdTAwMGJpKe3WdoKdcv+T0GV96Kjh+8j3aOepXHUwMDA1o+3RXHUwMDE1dCXmhsnKrZ9afDlcdTAwMWSdpbrdJe23Xevq6qL+/ucztzSlIypcdTAwMWJcdTAwMWbfpT3EXHUwMDFlXHUwMDFmXHUwMDExISxl2+JjhpjLkWielFx1MDAxMOeDXHUwMDFlx5TziWvkIFx1MDAwZfLiRTqd6sJcdTAwMDTupHT6WmpcdTAwMTVBVuybdNTJXHUwMDE4cqrlXHUwMDEx6CZcZr3C3q2dXHUwMDAxRMcsXHUwMDA24eZcdTAwMTLwXGLzLi+Y+lx1MDAxY85cdTAwMDHSSlRcdTAwMDWzMuHWiJ1KXCJr9fqK9sq6NlHBXHUwMDFh8Ixe8167XHUwMDAwqvgyXVRcdFx1MDAwYipvtbozNV6hYn3Co/xspkJcdTAwMWTEXHUwMDFkXHUwMDEztu89UbZcdTAwMGZf51wi0Gzvl+ufX+VHr9+HXHUwMDFm3338sF62rzJTXHUwMDExVmfc1Z2Hys0txMvyRFDXvsNcdTAwMWVcdTAwMGbVNVr0OKz7/2FVvEdpxkj6jMrOXHUwMDFkxlx1MDAxM5XZR5JJirZNqnxcXFx1MDAxZSl/98o8XHUwMDA0uFx1MDAxZlKnPFx1MDAwMfLMKU+BfGdVXHUwMDAx8j6Q99z2XHUwMDBioCDdXHUwMDA2QYuwu9wzaFx1MDAxM3Y7yYJ1U412U3JrSNpXXHUwMDAzI9F36diWp+V1b1x1MDAxNXdE2lx1MDAxYe4kaWtssnavqYE3UFx1MDAwMDF02yRBlmzgW1x1MDAxZoScuD0rwFxmRDhcdTAwMTU4SFx1MDAxMbJcdTAwMDE2QIJQp0mgXHUwMDE4UOeSsd9PnoLiRJ1RZlDeXHUwMDE5M1x1MDAwZUJMnVxmkoNcdTAwMWOiTn9y/2vkmdP9LXlnUrfknf6H62VO/3OQPszZXHUwMDFjOEBcdTAwMDBzx1x1MDAwYsSXOZtcdTAwMDNcdTAwMDe9kDn9z4A93Ol/XHUwMDA28MWd/mdkW/I7Lb3BLDPMZ27+QdqR6+k8NsTjZHl77bzisd1HJdBNgC9QkntvjveOJrNcdTAwMTcnN1NcdTAwMWbr13/8ujFcdTAwMDHGrEWAiSWBK1x1MDAwMozKV9dcdTAwMWRni63xXHUwMDFmPLjmwWJzXHUwMDFlzMozXyw7X0w/yoJcdMPSQ83T+W2xYELk92fBMLHsyN9cdTAwMDNwh1eX1yE+T48uwuj68NehOEZhXHUwMDBmwKFcdTAwMTbg8PovmajXcSq49Vx1MDAxZjL9I5Dm9Xo37VHBfNpcdLXHf1x1MDAwMsJcdTAwMTGmhEu2/S0n9X1cdTAwMWLU71x1MDAwNTbSS1x1MDAxYVBcbmfHxGBf4GTIXHUwMDA0cnY34Vx1MDAwMlxyXHUwMDFmO1x0hVx1MDAwZtbqJuBcdTAwMTJcdTAwMTJSJ+HCXHUwMDE4nqw6XHUwMDE5XHUwMDExJpBcdTAwMTK5XHUwMDFkSsFcdTAwMTLcnFx1MDAwZVNIMt0mMchcdTAwMWGdTsKQtrtpXHUwMDFhhttx7t6neH1cdTAwMTV8sGjuXHUwMDBlnFx1MDAwNNSaO91KMOSmTq5M4GaIO+NgKlx1MDAwZVBwxoFcYrBcdTAwMDbhXHUwMDA2vlx1MDAwZuAjnF5cIlx1MDAxMFx1MDAwZsK5XHUwMDA2ikBcdTAwMWM8p0mmzlx1MDAwMlx1MDAwNadJlEJcdTAwMDVnXHUwMDFjKNxUeO41XGJcdTAwMDBRz7krpYL3VYBeckaaerivXHUwMDAy7avA+irwrSnstFx1MDAxNL9cdTAwMTG321lOMVxiZrOzwjynfpljuIiOli/DV1x1MDAwNfphrFDlu1x1MDAxNd5cdTAwMTj6LY3UQVx1MDAxMlxcxu02PbjRarH/9HvYnSXFLKlXtbrP9zv3/1x1MDAwNTVDXHUwMDFm3iJ9<!-- payload-end --></metadata><defs><style class="style-fonts">
      @font-face { font-family: Nunito; src: url(https://esm.sh/@excalidraw/excalidraw@0.18.0/dist/prod/fonts/Nunito/Nunito-Regular-XRXI3I6Li01BKofiOc5wtlZ2di8HDIkhdTQ3j6zbXWjgeg.woff2); }</style></defs><rect x="0" y="0" width="631" height="426" fill="transparent"/><g stroke-linecap="round" transform="translate(30 217) rotate(0 285.5 89.5)"><path d="M0 0 C0 0, 0 0, 0 0 M0 0 C0 0, 0 0, 0 0 M-0.26 6.4 C2.15 4.29, 4.72 1.08, 4.99 0.36 M-0.26 6.4 C0.91 5.11, 1.76 4.18, 4.99 0.36 M0.13 12.04 C3.44 6.83, 7.62 2.69, 10.63 -0.03 M0.13 12.04 C3.96 7.65, 8.82 2.81, 10.63 -0.03 M-0.13 18.44 C3.33 15.65, 8.22 10.16, 15.62 0.33 M-0.13 18.44 C5.38 12.46, 10.62 5.42, 15.62 0.33 M0.27 24.08 C8.15 15.76, 11.36 11.73, 21.26 -0.07 M0.27 24.08 C5.14 16.92, 11.68 11.55, 21.26 -0.07 M0 30.48 C11.37 19.24, 21.45 5.9, 26.25 0.29 M0 30.48 C9.46 19.23, 20.31 6.34, 26.25 0.29 M-0.26 36.88 C9.2 26.64, 19.33 16.82, 31.89 -0.1 M-0.26 36.88 C10.82 22.54, 23.53 8.42, 31.89 -0.1 M0.14 42.52 C13.38 24.5, 30.59 8.8, 36.88 0.26 M0.14 42.52 C12.2 28.49, 24.47 12.99, 36.88 0.26 M-0.12 48.92 C10.47 36.67, 19.27 25.62, 42.52 -0.14 M-0.12 48.92 C17.74 29.88, 34.31 9.92, 42.52 -0.14 M0.27 54.56 C17.59 34.21, 35.18 15.81, 47.51 0.22 M0.27 54.56 C19.23 33.25, 38.3 11.19, 47.51 0.22 M0.01 60.96 C19.21 39.24, 42.48 14.95, 53.15 -0.17 M0.01 60.96 C12.84 47.24, 24.87 32.89, 53.15 -0.17 M-0.25 67.36 C18.68 45.97, 37.11 26.53, 58.14 0.19 M-0.25 67.36 C13.82 52.39, 25.49 37.07, 58.14 0.19 M0.14 73 C20.19 49.49, 41.06 25.23, 63.78 -0.21 M0.14 73 C24.92 46.9, 47.75 19.43, 63.78 -0.21 M-0.12 79.4 C20.25 53.67, 40.19 32.04, 68.77 0.15 M-0.12 79.4 C24.6 50.79, 48.25 22.66, 68.77 0.15 M0.28 85.04 C20.4 62.66, 41.8 40.01, 74.41 -0.24 M0.28 85.04 C19.61 63.37, 38.66 39.73, 74.41 -0.24 M0.01 91.44 C22 67.18, 44.38 39.58, 79.4 0.12 M0.01 91.44 C20.68 67.84, 42.18 43.26, 79.4 0.12 M-0.25 97.84 C24.09 67.64, 52.29 41.29, 85.04 -0.28 M-0.25 97.84 C32.86 60.32, 64.53 22.94, 85.04 -0.28 M0.15 103.48 C37.56 64.13, 70.61 19.21, 90.03 0.08 M0.15 103.48 C23.27 77.36, 46.29 52.77, 90.03 0.08 M-0.11 109.88 C33.08 73.68, 65.07 33.64, 95.67 -0.31 M-0.11 109.88 C34.53 69.31, 70.81 26.25, 95.67 -0.31 M0.28 115.52 C32.36 77.74, 67 34.94, 100.66 0.05 M0.28 115.52 C36.18 73.83, 70.13 34.42, 100.66 0.05 M0.02 121.92 C21.38 98.8, 41.86 71.94, 106.3 -0.34 M0.02 121.92 C32.73 83.95, 63.64 48.35, 106.3 -0.34 M-0.24 128.32 C39.22 84.54, 76.48 39.3, 111.29 0.02 M-0.24 128.32 C30.84 93.28, 62.67 56.16, 111.29 0.02 M0.15 133.96 C41.11 87.71, 80.63 41.46, 116.27 0.38 M0.15 133.96 C43.95 84.52, 86.15 34.44, 116.27 0.38 M-0.11 140.36 C31.21 103.18, 64.58 67.1, 121.92 -0.02 M-0.11 140.36 C30.83 106.55, 59.02 73.73, 121.92 -0.02 M0.29 146 C33.82 107.46, 66.97 66.54, 126.91 0.34 M0.29 146 C30.31 113.41, 57.22 79.77, 126.91 0.34 M0.02 152.4 C30.6 119.57, 60.42 84.11, 132.55 -0.05 M0.02 152.4 C42.97 104.23, 87.12 55.52, 132.55 -0.05 M-0.24 158.8 C53.93 99.14, 103.18 39.46, 137.54 0.31 M-0.24 158.8 C36.51 114.59, 73.6 71.98, 137.54 0.31 M0.16 164.44 C54.28 102.68, 110.65 39.32, 143.18 -0.09 M0.16 164.44 C45.24 112.5, 91.27 61.11, 143.18 -0.09 M-0.1 170.84 C40.92 122.53, 83.03 77.03, 148.17 0.27 M-0.1 170.84 C47.34 114.6, 94.22 60.26, 148.17 0.27 M0.29 176.48 C34.87 134.21, 68.03 95.69, 153.81 -0.12 M0.29 176.48 C45.51 124.72, 91.53 71.63, 153.81 -0.12 M3.31 179.1 C47.85 126.83, 91.29 75.06, 158.8 0.24 M3.31 179.1 C60.59 112.82, 115.54 48.71, 158.8 0.24 M8.3 179.46 C39.82 143.75, 70.17 108.08, 164.44 -0.16 M8.3 179.46 C46.77 138.58, 83.62 95.95, 164.44 -0.16 M13.94 179.07 C68.45 115.58, 122.31 52.43, 169.43 0.2 M13.94 179.07 C75.23 109.62, 134.99 40.9, 169.43 0.2 M18.93 179.43 C70.13 121.98, 118.79 63.62, 175.07 -0.19 M18.93 179.43 C76.84 111.53, 136.97 42.94, 175.07 -0.19 M24.57 179.03 C69.41 128.48, 111.11 79.04, 180.06 0.17 M24.57 179.03 C83.68 112.62, 142.21 45.12, 180.06 0.17 M29.56 179.39 C85.13 116.68, 138.82 54.45, 185.7 -0.23 M29.56 179.39 C75.91 126.49, 120.74 74.72, 185.7 -0.23 M35.2 179 C89.87 115.23, 142.95 53.37, 190.69 0.13 M35.2 179 C82.3 125.16, 127.82 72.22, 190.69 0.13 M40.19 179.36 C72.08 140.6, 105.69 104.72, 196.33 -0.26 M40.19 179.36 C101.07 108.74, 161.85 39.2, 196.33 -0.26 M45.17 179.72 C88.58 127.66, 137.14 74.12, 201.32 0.1 M45.17 179.72 C92.04 126.93, 139.41 72.54, 201.32 0.1 M50.82 179.33 C113.58 109.77, 175.88 36.4, 206.96 -0.3 M50.82 179.33 C85.6 139.93, 120.52 99.81, 206.96 -0.3 M55.8 179.69 C102.27 125.27, 150.15 71.24, 211.95 0.06 M55.8 179.69 C109.48 118.4, 162.9 56.18, 211.95 0.06 M61.45 179.29 C119.03 113.77, 175.16 50.31, 217.59 -0.33 M61.45 179.29 C122.16 108.56, 184.15 36.82, 217.59 -0.33 M66.43 179.65 C102.07 139.14, 138.75 98.18, 222.58 0.03 M66.43 179.65 C123.74 114.24, 181.66 47.63, 222.58 0.03 M72.08 179.26 C117.38 126.31, 165.79 69.88, 228.22 -0.36 M72.08 179.26 C108.71 136.63, 145.2 94.95, 228.22 -0.36 M77.06 179.62 C139.07 111.45, 199.5 42.28, 233.21 0 M77.06 179.62 C123.36 126.39, 169.3 73.11, 233.21 0 M82.71 179.22 C142.7 113.07, 200.16 43.22, 238.19 0.36 M82.71 179.22 C132.32 121.35, 182.33 63.45, 238.19 0.36 M87.69 179.58 C140.87 117.03, 194.83 54.91, 243.84 -0.04 M87.69 179.58 C127.11 132.23, 166.92 87.51, 243.84 -0.04 M93.34 179.19 C142.92 121.35, 194.93 63.26, 248.82 0.32 M93.34 179.19 C150.08 114.18, 205.38 49.27, 248.82 0.32 M98.32 179.55 C148.86 119.05, 198.88 62.31, 254.47 -0.07 M98.32 179.55 C153.7 114.59, 209.97 50.34, 254.47 -0.07 M103.97 179.15 C139.4 139.33, 177.08 95.08, 259.45 0.29 M103.97 179.15 C154.39 120.14, 206.83 60.49, 259.45 0.29 M108.95 179.51 C144.05 137.41, 177.27 100.31, 265.1 -0.11 M108.95 179.51 C155.71 126.15, 202.97 72.04, 265.1 -0.11 M114.6 179.12 C167.05 120.12, 217.19 61.81, 270.08 0.25 M114.6 179.12 C162.32 122.61, 210.55 68.02, 270.08 0.25 M119.58 179.48 C179.99 111.75, 241.57 40.3, 275.73 -0.14 M119.58 179.48 C179.37 111.32, 238.85 42.8, 275.73 -0.14 M125.23 179.08 C162.86 138.21, 196.61 97.34, 280.71 0.22 M125.23 179.08 C165.7 132.5, 204.01 87.35, 280.71 0.22 M130.21 179.44 C165.19 138.83, 199.68 101.46, 286.36 -0.18 M130.21 179.44 C174.89 127.91, 218.5 76.55, 286.36 -0.18 M135.86 179.05 C180.17 129.27, 222.83 79.4, 291.34 0.18 M135.86 179.05 C169.88 138.49, 203.15 99.69, 291.34 0.18 M140.84 179.41 C203.61 107.43, 266.69 37.02, 296.99 -0.21 M140.84 179.41 C184.43 128.05, 229.51 76.26, 296.99 -0.21 M146.49 179.02 C180.74 138.77, 213.74 101.7, 301.97 0.15 M146.49 179.02 C200.1 115.6, 255.36 53.92, 301.97 0.15 M151.47 179.38 C187.7 137.9, 225.13 94.31, 307.62 -0.25 M151.47 179.38 C190.37 134.49, 228.26 89.89, 307.62 -0.25 M156.46 179.74 C208.17 121.99, 257.99 62.44, 312.6 0.11 M156.46 179.74 C200.01 127.12, 244.92 75.52, 312.6 0.11 M162.1 179.34 C214.71 120.68, 264 62.89, 318.25 -0.28 M162.1 179.34 C196.93 138, 231.9 98.34, 318.25 -0.28 M167.09 179.7 C202.68 141.03, 238.84 97.11, 323.23 0.08 M167.09 179.7 C221.54 115.56, 277.12 52.14, 323.23 0.08 M172.73 179.31 C220.82 122.64, 269.34 65.98, 328.88 -0.31 M172.73 179.31 C213.67 132.21, 253.95 86.23, 328.88 -0.31 M177.72 179.67 C229.83 116.73, 285.55 54.7, 333.86 0.05 M177.72 179.67 C233.99 114.55, 290 48.98, 333.86 0.05 M183.36 179.27 C231.46 124.43, 276.5 69.79, 339.51 -0.35 M183.36 179.27 C214.19 141.11, 246.81 105.31, 339.51 -0.35 M188.35 179.63 C222.76 139.36, 255.16 103.14, 344.49 0.01 M188.35 179.63 C223.67 139.24, 258.4 99.24, 344.49 0.01 M193.99 179.24 C232.02 132.23, 273.71 86.49, 349.48 0.37 M193.99 179.24 C237.05 130.54, 279.43 83.4, 349.48 0.37 M198.98 179.6 C256.01 113.52, 314.35 47.32, 355.12 -0.02 M198.98 179.6 C251.63 118.46, 304.26 57.51, 355.12 -0.02 M204.62 179.2 C267.04 110.02, 327.49 37.28, 360.11 0.34 M204.62 179.2 C247.82 126.62, 293.59 75.67, 360.11 0.34 M209.61 179.56 C253.35 127.37, 294.76 77.69, 365.75 -0.06 M209.61 179.56 C269.21 110.3, 329.99 40.87, 365.75 -0.06 M215.26 179.17 C247.03 141.9, 279.72 105.07, 370.74 0.3 M215.26 179.17 C254.47 134.53, 293.55 90.18, 370.74 0.3 M220.24 179.53 C279.95 108.36, 341.02 39.94, 376.38 -0.09 M220.24 179.53 C275.96 116.27, 330.66 53.48, 376.38 -0.09 M225.89 179.13 C262.33 139.09, 295.22 98.4, 381.37 0.27 M225.89 179.13 C282.16 112.55, 341.42 46.34, 381.37 0.27 M230.87 179.49 C274.75 128.25, 321.83 76.74, 387.01 -0.13 M230.87 179.49 C279.97 121.58, 328.26 66.07, 387.01 -0.13 M236.52 179.1 C276.53 130.76, 318.73 84.61, 392 0.23 M236.52 179.1 C273.11 137.13, 310.7 93.25, 392 0.23 M241.5 179.46 C296.87 118.34, 349.68 55.59, 397.64 -0.16 M241.5 179.46 C274.05 141.65, 308.21 101.73, 397.64 -0.16 M247.15 179.06 C305.1 110.55, 365.37 44.12, 402.63 0.2 M247.15 179.06 C282.86 136.09, 318.73 95.78, 402.63 0.2 M252.13 179.42 C291.07 132.12, 331.03 86.22, 408.27 -0.2 M252.13 179.42 C301.47 120.64, 350.99 62.6, 408.27 -0.2 M257.78 179.03 C302.32 128.58, 347.87 79.74, 413.26 0.16 M257.78 179.03 C307.09 123.76, 356.79 65.98, 413.26 0.16 M262.76 179.39 C313.13 123.74, 358.99 66.9, 418.9 -0.23 M262.76 179.39 C321.1 115.03, 377.24 48.8, 418.9 -0.23 M268.41 179 C326.83 113.33, 380.8 49.71, 423.89 0.13 M268.41 179 C309.4 133.48, 349.02 86.64, 423.89 0.13 M273.39 179.36 C326.28 119.84, 380.4 55.84, 429.53 -0.26 M273.39 179.36 C333.92 110.98, 392.67 42.06, 429.53 -0.26 M278.38 179.72 C316.41 135.67, 357.97 88.63, 434.52 0.1 M278.38 179.72 C313.32 139.27, 346.22 100.26, 434.52 0.1 M284.02 179.32 C336.02 118.83, 390.81 59.47, 440.16 -0.3 M284.02 179.32 C330.65 126.32, 376.4 72.97, 440.16 -0.3 M289.01 179.68 C327.72 133.11, 365.6 88.68, 445.15 0.06 M289.01 179.68 C340.34 120.58, 391.19 62.74, 445.15 0.06 M294.65 179.29 C334.14 135.04, 370.76 92.32, 450.79 -0.33 M294.65 179.29 C344.11 122.59, 392.6 66.11, 450.79 -0.33 M299.64 179.65 C348.11 123.97, 400.03 64.81, 455.78 0.03 M299.64 179.65 C349.64 122.28, 400.09 64.21, 455.78 0.03 M305.28 179.25 C366.18 107.45, 425.7 37.43, 461.42 -0.37 M305.28 179.25 C361.29 116.8, 417.12 52.92, 461.42 -0.37 M310.27 179.61 C351.93 130.21, 397.24 79.49, 466.41 -0.01 M310.27 179.61 C362.32 120.61, 414.37 60.35, 466.41 -0.01 M315.91 179.22 C354.24 135.95, 391.21 91.58, 471.4 0.35 M315.91 179.22 C347.06 143.3, 378.94 107.85, 471.4 0.35 M320.9 179.58 C383.37 110.64, 443.21 41.23, 477.04 -0.04 M320.9 179.58 C363.89 130.97, 406.34 82.8, 477.04 -0.04 M326.54 179.18 C360.39 140.9, 394.73 100.81, 482.03 0.32 M326.54 179.18 C378.53 117.97, 431.62 56.58, 482.03 0.32 M331.53 179.54 C362.79 142.24, 396.12 108, 487.67 -0.08 M331.53 179.54 C370.05 137.32, 407.43 93.34, 487.67 -0.08 M337.17 179.15 C390.61 117.62, 443.31 60.92, 492.66 0.28 M337.17 179.15 C390.13 116.21, 444.77 53.7, 492.66 0.28 M342.16 179.51 C390.83 124.41, 438.09 68.27, 498.3 -0.11 M342.16 179.51 C393.81 119.06, 447.44 58.38, 498.3 -0.11 M347.8 179.11 C397.06 123.99, 447.96 64.61, 503.29 0.25 M347.8 179.11 C393.92 125.88, 439.6 72.38, 503.29 0.25 M352.79 179.47 C409.36 114.37, 467.37 49, 508.93 -0.15 M352.79 179.47 C390.71 134.73, 430.59 89.48, 508.93 -0.15 M358.43 179.08 C401.75 127.54, 447.11 75.13, 513.92 0.21 M358.43 179.08 C408.15 119.91, 460.15 60.47, 513.92 0.21 M363.42 179.44 C406.6 130.24, 450.64 79.73, 519.56 -0.18 M363.42 179.44 C402.61 131.96, 443.82 85.41, 519.56 -0.18 M369.06 179.05 C418.72 122.87, 463.22 68.23, 524.55 0.18 M369.06 179.05 C419.07 122.97, 467.83 67.08, 524.55 0.18 M374.05 179.41 C409.07 137.25, 445.11 98.87, 530.19 -0.22 M374.05 179.41 C410.89 136.85, 447.15 96.06, 530.19 -0.22 M379.69 179.01 C413.52 140.18, 444.6 106.73, 535.18 0.14 M379.69 179.01 C437.89 112.92, 496.71 46.67, 535.18 0.14 M384.68 179.37 C422.15 138.56, 459.83 93.03, 540.82 -0.25 M384.68 179.37 C420.78 137.35, 456.74 98.14, 540.82 -0.25 M389.67 179.73 C449.28 114.62, 505.91 46.28, 545.81 0.11 M389.67 179.73 C443.72 117.62, 496.69 56.3, 545.81 0.11 M395.31 179.34 C429.42 142.94, 461.84 104.71, 551.45 -0.28 M395.31 179.34 C441.17 126.13, 486.77 75.58, 551.45 -0.28 M400.3 179.7 C454.99 116.9, 511.27 54.48, 556.44 0.08 M400.3 179.7 C452.25 117.38, 506.31 56.76, 556.44 0.08 M405.94 179.3 C451.77 126.7, 497.58 72.31, 562.08 -0.32 M405.94 179.3 C448.36 133.15, 488.62 86.35, 562.08 -0.32 M410.93 179.66 C450.66 134.82, 488.48 90.01, 567.07 0.04 M410.93 179.66 C470.03 111.04, 529.44 41.98, 567.07 0.04 M416.57 179.27 C461.83 125.47, 506.48 73.8, 570.74 1.91 M416.57 179.27 C474.65 112.57, 532.47 45.85, 570.74 1.91 M421.56 179.63 C473.44 123.56, 523.4 64.73, 571.14 7.55 M421.56 179.63 C474.67 116.92, 528.87 53.82, 571.14 7.55 M427.2 179.23 C466.55 129.36, 510.02 84.83, 570.88 13.95 M427.2 179.23 C465.14 137.32, 500.03 97.12, 570.88 13.95 M432.19 179.59 C465.06 141.43, 496.22 104.83, 571.27 19.59 M432.19 179.59 C471.39 135.6, 509.8 92.17, 571.27 19.59 M437.83 179.2 C492.23 120.14, 544.46 58.04, 571.01 25.99 M437.83 179.2 C477.37 133.26, 517.82 86.69, 571.01 25.99 M442.82 179.56 C482.98 132.33, 523.32 84.58, 570.75 32.39 M442.82 179.56 C494.68 120.06, 546.05 62.51, 570.75 32.39 M448.46 179.16 C475.45 147.43, 501.02 119.04, 571.14 38.03 M448.46 179.16 C488.88 130.43, 530.35 85.24, 571.14 38.03 M453.45 179.52 C495.19 130.73, 538.48 83.59, 570.88 44.43 M453.45 179.52 C491.32 138.01, 528.18 94.1, 570.88 44.43 M459.09 179.13 C504.35 128.82, 550.74 77.13, 571.28 50.07 M459.09 179.13 C494.79 136.42, 531.53 92.82, 571.28 50.07 M464.08 179.49 C488.47 153.84, 511.07 123.19, 571.02 56.47 M464.08 179.49 C492.24 144.74, 523.48 112.02, 571.02 56.47 M469.72 179.1 C492.42 152.25, 515.52 125.4, 570.75 62.87 M469.72 179.1 C499.16 146.63, 526.63 115.04, 570.75 62.87 M474.71 179.46 C512.61 134.87, 549.83 91.69, 571.15 68.51 M474.71 179.46 C498.94 151.22, 521.97 124.85, 571.15 68.51 M480.35 179.06 C509.67 147.45, 536.27 114.8, 570.89 74.91 M480.35 179.06 C514.8 142.35, 547.22 103.01, 570.89 74.91 M485.34 179.42 C510.26 151.63, 533.49 121.19, 571.28 80.55 M485.34 179.42 C506.65 152.48, 530.19 127.03, 571.28 80.55 M490.98 179.03 C509.56 156.38, 527.35 133.53, 571.02 86.95 M490.98 179.03 C517.33 148.93, 545.91 117.81, 571.02 86.95 M495.97 179.39 C516.39 155.16, 539.61 128.09, 570.76 93.35 M495.97 179.39 C515.92 155.99, 536.62 134.32, 570.76 93.35 M500.96 179.75 C524.19 153.97, 545.74 129.45, 571.15 98.99 M500.96 179.75 C526.24 150.36, 551.71 121.01, 571.15 98.99 M506.6 179.35 C527.43 154.13, 549.11 131.07, 570.89 105.39 M506.6 179.35 C525.5 158.72, 544.1 136.49, 570.89 105.39 M511.59 179.71 C526.73 161.83, 546.94 142.3, 571.29 111.03 M511.59 179.71 C535.75 153.74, 557.7 126.84, 571.29 111.03 M517.23 179.32 C533.67 157.96, 554.58 139.82, 571.03 117.43 M517.23 179.32 C529.47 165.69, 542.27 151, 571.03 117.43 M522.22 179.68 C536.54 161.62, 552.2 143.39, 570.76 123.83 M522.22 179.68 C538.69 160.18, 554.85 142, 570.76 123.83 M527.86 179.28 C542.11 162.93, 554.66 147.83, 571.16 129.47 M527.86 179.28 C541.17 164.25, 553.31 147.94, 571.16 129.47 M532.85 179.64 C545 165.57, 559.45 149.01, 570.9 135.87 M532.85 179.64 C546.65 163.43, 560.3 148.8, 570.9 135.87 M538.49 179.25 C550.29 167.47, 560.68 153.19, 571.29 141.51 M538.49 179.25 C545.23 170.39, 552.24 162.26, 571.29 141.51 M543.48 179.61 C549.23 171, 557.24 162.72, 571.03 147.91 M543.48 179.61 C553.07 168.22, 562.17 157.22, 571.03 147.91 M549.12 179.21 C558.67 168.27, 566.96 160.43, 570.77 154.31 M549.12 179.21 C556.57 170.39, 565.26 162.16, 570.77 154.31 M554.11 179.57 C560.69 170.71, 565.67 164.62, 571.16 159.95 M554.11 179.57 C557.06 174.79, 560.77 171.65, 571.16 159.95 M559.75 179.18 C562.59 175.56, 565.99 172.08, 570.9 166.35 M559.75 179.18 C563.84 174.07, 569.1 169.88, 570.9 166.35 M564.74 179.54 C567.29 177.04, 567 176.54, 571.3 171.99 M564.74 179.54 C566.94 176.87, 568.91 175.19, 571.3 171.99 M570.38 179.14 C570.57 178.8, 570.81 178.73, 571.04 178.39 M570.38 179.14 C570.57 178.97, 570.74 178.7, 571.04 178.39 M-0.33 178.71 C-0.33 178.71, -0.33 178.71, -0.33 178.71 M-0.33 178.71 C-0.33 178.71, -0.33 178.71, -0.33 178.71 M6.07 178.98 C4.01 177.87, 3 176.33, 0.03 173.73 M6.07 178.98 C4.1 177.09, 2.83 176.15, 0.03 173.73 M12.47 179.24 C10.38 176.05, 7.28 174.09, -0.36 168.08 M12.47 179.24 C9.24 175.84, 5.48 172.73, -0.36 168.08 M18.11 178.84 C12.63 175.38, 9.7 170.67, 0 163.1 M18.11 178.84 C11.93 174.31, 8.04 170.42, 0 163.1 M24.51 179.1 C13.19 170, 4.43 161.38, 0.36 158.11 M24.51 179.1 C16.55 171.86, 7.49 164.05, 0.36 158.11 M30.15 178.71 C21.33 171.52, 14.58 163.24, -0.04 152.47 M30.15 178.71 C20.78 170.15, 12.03 162.7, -0.04 152.47 M36.55 178.97 C21.97 164.52, 8.48 153.52, 0.32 147.48 M36.55 178.97 C26.57 171.69, 18.03 163.59, 0.32 147.48 M42.95 179.23 C29.7 166.7, 14.57 156.57, -0.07 141.84 M42.95 179.23 C26.05 166.31, 11.47 151.94, -0.07 141.84 M48.59 178.84 C29.59 165.3, 15.98 148.06, 0.29 136.85 M48.59 178.84 C36.84 170.16, 26.08 160.77, 0.29 136.85 M54.99 179.1 C35.53 163.02, 16.39 147.77, -0.11 131.21 M54.99 179.1 C36.8 163.64, 17.79 145.74, -0.11 131.21 M60.63 178.71 C42.64 165.27, 28.64 153.03, 0.25 126.22 M60.63 178.71 C36.38 157.77, 12.4 137.63, 0.25 126.22 M67.03 178.97 C41.62 158.49, 20.65 138.89, -0.14 120.58 M67.03 178.97 C40.82 157.76, 15.8 135.29, -0.14 120.58 M73.43 179.23 C57.44 166.08, 41.59 153.64, 0.22 115.59 M73.43 179.23 C48.33 157.28, 21.55 133.84, 0.22 115.59 M79.07 178.83 C48.75 154.98, 24.32 130.18, -0.17 109.95 M79.07 178.83 C59.9 162.27, 41.53 145.56, -0.17 109.95 M85.47 179.09 C55.03 154.51, 25.42 128.41, 0.19 104.96 M85.47 179.09 C55.45 151.77, 23.63 125.9, 0.19 104.96 M91.11 178.7 C60.74 149.89, 26.15 124.05, -0.21 99.32 M91.11 178.7 C70.64 160.38, 50.17 144.48, -0.21 99.32 M97.51 178.96 C61.49 146.24, 22.45 114.21, 0.15 94.33 M97.51 178.96 C67.65 152.91, 39.06 127.43, 0.15 94.33 M103.91 179.22 C69.94 152.61, 36.49 121.83, -0.24 88.69 M103.91 179.22 C64.27 143.21, 22.47 107.57, -0.24 88.69 M109.55 178.83 C88.02 159.19, 62.78 138.75, 0.12 83.7 M109.55 178.83 C70.24 144.51, 31 108.65, 0.12 83.7 M115.95 179.09 C87.55 158.04, 61.14 134.65, -0.28 78.06 M115.95 179.09 C72.54 144.44, 31.47 106.29, -0.28 78.06 M121.59 178.7 C81.19 146.19, 40.48 112.78, 0.08 73.07 M121.59 178.7 C79.12 141.43, 35.56 104.78, 0.08 73.07 M127.99 178.96 C97.55 150.64, 64.72 124.33, -0.31 67.43 M127.99 178.96 C87.95 142.41, 46 106.83, -0.31 67.43 M134.39 179.22 C103.09 149.67, 70.93 121.42, 0.05 62.44 M134.39 179.22 C85.2 135.51, 34.3 91.99, 0.05 62.44 M140.03 178.82 C89.03 135.25, 40.61 93.92, -0.35 56.8 M140.03 178.82 C112.22 153.88, 82.29 128.73, -0.35 56.8 M146.43 179.09 C88.29 131.12, 33.18 81.94, 0.01 51.81 M146.43 179.09 C93.18 132.6, 38.78 86.38, 0.01 51.81 M152.07 178.69 C115.02 145.14, 74.58 110.74, 0.37 46.82 M152.07 178.69 C102.95 135.83, 55.67 93.83, 0.37 46.82 M158.47 178.95 C114.5 140.12, 70.18 100.59, -0.02 41.18 M158.47 178.95 C105.81 132.57, 53.89 86.49, -0.02 41.18 M164.87 179.21 C110.96 133.76, 61.94 89.38, 0.34 36.19 M164.87 179.21 C113.33 132.81, 60.57 86.81, 0.34 36.19 M170.51 178.82 C115.84 131.92, 59.04 83.17, -0.06 30.55 M170.51 178.82 C113.32 127.06, 55.56 76.92, -0.06 30.55 M176.91 179.08 C131.56 139.59, 86.61 100.76, 0.3 25.56 M176.91 179.08 C137.15 144.79, 98.4 110.84, 0.3 25.56 M182.55 178.69 C144.29 142.68, 102.18 109.92, -0.09 19.92 M182.55 178.69 C126.67 131.89, 71.14 83.21, -0.09 19.92 M188.95 178.95 C115.16 115.35, 40.06 52.77, 0.27 14.93 M188.95 178.95 C150.52 145.62, 111.17 112.52, 0.27 14.93 M195.34 179.21 C123.09 118.29, 54.71 58.22, -0.13 9.29 M195.34 179.21 C153.82 145.14, 112.48 108.75, -0.13 9.29 M200.99 178.81 C153.39 136.17, 108.52 95.39, 0.23 4.3 M200.99 178.81 C158.48 140.65, 115.76 104.01, 0.23 4.3 M207.39 179.08 C163.53 142.77, 118.94 103.41, 0.6 -0.68 M207.39 179.08 C145.23 123.23, 82.63 69.09, 0.6 -0.68 M213.03 178.68 C152.81 126.79, 96.9 78.59, 6.99 -0.42 M213.03 178.68 C143.67 120.04, 73.94 59.88, 6.99 -0.42 M219.43 178.94 C143.38 113.82, 70.56 49.21, 12.64 -0.82 M219.43 178.94 C159.78 128.97, 101.42 77.12, 12.64 -0.82 M225.82 179.2 C178.05 138.66, 133.77 98.89, 19.03 -0.56 M225.82 179.2 C178.36 137.41, 130.57 96.63, 19.03 -0.56 M231.47 178.81 C180.86 132.47, 126.89 88.07, 24.68 -0.95 M231.47 178.81 C165.78 122.45, 101.69 67.11, 24.68 -0.95 M237.86 179.07 C165.49 118.85, 95.26 55.61, 31.07 -0.69 M237.86 179.07 C172.46 122.87, 108.83 66.95, 31.07 -0.69 M243.51 178.68 C191.83 134.99, 140.03 89.69, 37.47 -0.43 M243.51 178.68 C201.61 142.74, 158.55 104.03, 37.47 -0.43 M249.91 178.94 C187.24 124.43, 121.34 66.55, 43.12 -0.82 M249.91 178.94 C175.7 115.09, 102.24 51.41, 43.12 -0.82 M256.3 179.2 C175.58 111.47, 94.8 40.36, 49.51 -0.56 M256.3 179.2 C203.86 135.34, 152.02 89.46, 49.51 -0.56 M261.95 178.8 C182.59 107.05, 101.92 36.51, 55.16 -0.96 M261.95 178.8 C200.87 124.11, 140.05 71.16, 55.16 -0.96 M268.34 179.07 C227.5 140.67, 186.31 105.98, 61.55 -0.69 M268.34 179.07 C189.32 110.25, 111.35 41.33, 61.55 -0.69 M274.74 179.33 C225.16 139.48, 179.46 96.34, 67.95 -0.43 M274.74 179.33 C226.61 137.46, 178.96 95.44, 67.95 -0.43 M280.39 178.93 C215.48 123.69, 151.25 67.25, 73.59 -0.83 M280.39 178.93 C200.43 108.9, 119.15 37.67, 73.59 -0.83 M286.78 179.19 C229.71 132.66, 172.53 80.68, 79.99 -0.57 M286.78 179.19 C243.78 143.89, 201.77 105.87, 79.99 -0.57 M292.43 178.8 C242.99 136.66, 196.14 93.46, 85.64 -0.96 M292.43 178.8 C219.38 115.79, 146.62 53.87, 85.64 -0.96 M298.82 179.06 C223.84 113.45, 149.45 51.17, 92.03 -0.7 M298.82 179.06 C249.48 137.18, 202 94.11, 92.03 -0.7 M305.22 179.32 C226.02 113.17, 148.08 46.58, 98.43 -0.44 M305.22 179.32 C229.82 113.17, 154.9 48.48, 98.43 -0.44 M310.86 178.93 C245.77 123.58, 183.28 68.95, 104.07 -0.83 M310.86 178.93 C250.53 126.39, 190.54 73.58, 104.07 -0.83 M317.26 179.19 C273.39 140.23, 225.93 100.83, 110.47 -0.57 M317.26 179.19 C275.05 140.81, 231.36 102.71, 110.47 -0.57 M322.91 178.79 C254.87 117.13, 185.93 57.47, 116.12 -0.97 M322.91 178.79 C259.88 123.73, 196.67 68.97, 116.12 -0.97 M329.3 179.06 C254.47 112.14, 178.89 46.32, 122.51 -0.7 M329.3 179.06 C260.18 118.62, 192.7 60.17, 122.51 -0.7 M335.7 179.32 C285.79 136.17, 233.91 90.88, 128.91 -0.44 M335.7 179.32 C260.66 112.42, 184.58 44.97, 128.91 -0.44 M341.34 178.92 C283.98 129.34, 226.28 77.16, 134.55 -0.84 M341.34 178.92 C297.01 142.62, 251.37 104.19, 134.55 -0.84 M347.74 179.18 C297.03 136.03, 248.35 91.03, 140.95 -0.58 M347.74 179.18 C278.43 120.8, 211.42 60.1, 140.95 -0.58 M353.39 178.79 C284.64 117.86, 215.89 57.64, 146.59 -0.97 M353.39 178.79 C306.49 138.32, 261.39 98.58, 146.59 -0.97 M359.78 179.05 C297.42 122.59, 236.23 69.53, 152.99 -0.71 M359.78 179.05 C277.8 107.24, 195.19 35.98, 152.99 -0.71 M366.18 179.31 C289.53 109.79, 209.67 41.87, 159.39 -0.45 M366.18 179.31 C292.77 116.84, 218.74 51.65, 159.39 -0.45 M371.82 178.92 C330.98 139.82, 287.69 102.82, 165.03 -0.84 M371.82 178.92 C301.18 118.73, 231.37 56.62, 165.03 -0.84 M378.22 179.18 C300.74 113.97, 224.49 49.11, 171.43 -0.58 M378.22 179.18 C315.05 126.01, 251.89 70.42, 171.43 -0.58 M383.86 178.79 C314.71 120.61, 248.36 64.09, 177.07 -0.97 M383.86 178.79 C325 127.32, 265.01 75, 177.07 -0.97 M390.26 179.05 C320.29 116.54, 250.63 58.08, 183.47 -0.71 M390.26 179.05 C310.13 108.19, 228.23 38.68, 183.47 -0.71 M396.66 179.31 C350.59 138.79, 305.36 102.08, 189.87 -0.45 M396.66 179.31 C328.2 121.52, 260.64 62.48, 189.87 -0.45 M402.3 178.91 C355.21 139.98, 310.67 98.8, 195.51 -0.85 M402.3 178.91 C358.43 141.14, 315.8 104.91, 195.51 -0.85 M408.7 179.17 C360.96 138.24, 313.55 98.1, 201.91 -0.59 M408.7 179.17 C346.75 123.69, 284.14 69.82, 201.91 -0.59 M414.34 178.78 C366.34 136.71, 316.25 93.01, 207.55 -0.98 M414.34 178.78 C371.56 143.17, 327.57 104.4, 207.55 -0.98 M420.74 179.04 C357.36 123.66, 293.87 66.35, 213.95 -0.72 M420.74 179.04 C376.83 138.22, 329.41 98.83, 213.95 -0.72 M427.14 179.3 C365.55 129.43, 304.87 74.33, 220.35 -0.46 M427.14 179.3 C366.45 125.6, 303.72 71.17, 220.35 -0.46 M432.78 178.91 C353.21 111.82, 275.74 42.54, 225.99 -0.85 M432.78 178.91 C382.66 134.42, 330.9 89.93, 225.99 -0.85 M439.18 179.17 C357.29 107.97, 277 38.13, 232.39 -0.59 M439.18 179.17 C384.25 130.72, 329.23 83.89, 232.39 -0.59 M444.82 178.78 C371.43 112.75, 298.47 49.55, 238.03 -0.98 M444.82 178.78 C379.39 122.27, 315.14 66.69, 238.03 -0.98 M451.22 179.04 C407.52 139.97, 360.17 99.19, 244.43 -0.72 M451.22 179.04 C386.02 121.69, 320.93 64.89, 244.43 -0.72 M457.62 179.3 C380.2 113.72, 305.66 48.56, 250.83 -0.46 M457.62 179.3 C397.71 126.68, 336.57 74.13, 250.83 -0.46 M463.26 178.9 C386.97 114.83, 313.37 47.95, 256.47 -0.86 M463.26 178.9 C392.79 115.73, 320.66 54.18, 256.47 -0.86 M469.66 179.17 C408.09 126.21, 343.04 70.41, 262.87 -0.59 M469.66 179.17 C420.93 139.46, 373.1 97.85, 262.87 -0.59 M475.3 178.77 C412.49 122.41, 350.9 70.05, 268.51 -0.99 M475.3 178.77 C411.96 123.86, 346.65 67.86, 268.51 -0.99 M481.7 179.03 C426.74 130.85, 373.95 85.42, 274.91 -0.73 M481.7 179.03 C412.7 118.3, 343.08 58.36, 274.91 -0.73 M488.1 179.29 C406.57 110.33, 328.76 37.96, 281.31 -0.47 M488.1 179.29 C442.11 142.33, 398.39 103.62, 281.31 -0.47 M493.74 178.9 C425.82 119.9, 358.44 60.2, 286.95 -0.86 M493.74 178.9 C416.11 111.26, 340.83 44.98, 286.95 -0.86 M500.14 179.16 C441.04 127.76, 381.87 76.47, 293.35 -0.6 M500.14 179.16 C434.83 121.62, 369.29 64.38, 293.35 -0.6 M505.78 178.77 C427.85 112.15, 349.76 45.69, 298.99 -0.99 M505.78 178.77 C455.14 135.2, 403.17 91.01, 298.99 -0.99 M512.18 179.03 C442.15 118.89, 373.85 61.07, 305.39 -0.73 M512.18 179.03 C438.59 112.92, 363.78 48.67, 305.39 -0.73 M518.58 179.29 C461.82 132.85, 408.03 83.88, 311.79 -0.47 M518.58 179.29 C466.46 134.11, 413.86 88.47, 311.79 -0.47 M524.22 178.89 C448.74 113.45, 375.35 49.03, 317.43 -0.87 M524.22 178.89 C461.65 123.05, 396.32 67.87, 317.43 -0.87 M530.62 179.16 C479.11 133.44, 427.21 86.73, 323.83 -0.6 M530.62 179.16 C483.56 139.31, 436.03 96.64, 323.83 -0.6 M536.26 178.76 C473.38 123.34, 407.39 68.13, 329.47 -1 M536.26 178.76 C490.29 138.46, 443.2 98.44, 329.47 -1 M542.66 179.02 C462.73 106.09, 380.85 36.81, 335.87 -0.74 M542.66 179.02 C463.46 112.24, 384.35 44.21, 335.87 -0.74 M549.06 179.28 C470.48 110.03, 389.8 38.83, 342.27 -0.48 M549.06 179.28 C506.28 141.78, 463.21 104.7, 342.27 -0.48 M554.7 178.89 C489.95 120.42, 426.08 63.03, 347.91 -0.87 M554.7 178.89 C503.47 134.24, 450.15 89.52, 347.91 -0.87 M561.1 179.15 C499.03 125.84, 438.32 71.79, 354.31 -0.61 M561.1 179.15 C514.42 137.23, 467.96 98.6, 354.31 -0.61 M566.74 178.76 C514.76 134.88, 463.73 87.86, 359.95 -1 M566.74 178.76 C489.37 111.52, 412.54 44.08, 359.95 -1 M571.63 177.71 C522.57 134.12, 470.63 93.04, 366.35 -0.74 M571.63 177.71 C513.57 125.52, 453.65 74.39, 366.35 -0.74 M571.24 172.06 C530.03 135.46, 486.35 95.79, 372.75 -0.48 M571.24 172.06 C527.55 133.18, 482.74 94.82, 372.75 -0.48 M571.6 167.08 C510.77 114.16, 449.92 58.74, 378.39 -0.88 M571.6 167.08 C514.64 117.62, 459.02 69.22, 378.39 -0.88 M571.2 161.43 C530.72 124.23, 489.44 88.49, 384.79 -0.61 M571.2 161.43 C529.68 123.2, 486.4 86.49, 384.79 -0.61 M571.56 156.45 C520.22 112.86, 468.82 65.35, 390.43 -1.01 M571.56 156.45 C504.86 96.41, 437.91 38.46, 390.43 -1.01 M571.17 150.8 C527.23 112.22, 482.61 71.29, 396.83 -0.75 M571.17 150.8 C503.62 89.72, 434.64 29.22, 396.83 -0.75 M571.53 145.82 C533.11 113.55, 496.95 79.56, 403.23 -0.49 M571.53 145.82 C515.93 96.84, 461.24 48.54, 403.23 -0.49 M571.13 140.17 C518.22 93.48, 464.22 46.05, 408.87 -0.88 M571.13 140.17 C525.02 100.82, 479.75 60.37, 408.87 -0.88 M571.49 135.19 C521.97 94.64, 474.46 51.05, 415.27 -0.62 M571.49 135.19 C536.12 104.18, 501.26 72.62, 415.27 -0.62 M571.1 129.54 C538.44 103.61, 508.67 74.81, 421.66 -0.36 M571.1 129.54 C514.55 79.38, 456.36 29.66, 421.66 -0.36 M571.46 124.56 C518.7 77.9, 465.83 34.86, 427.31 -0.75 M571.46 124.56 C516.02 77.97, 461.64 29.94, 427.31 -0.75 M571.06 118.91 C531.87 85.78, 497.83 52.23, 433.71 -0.49 M571.06 118.91 C543.78 95.92, 514.97 71.86, 433.71 -0.49 M571.42 113.92 C524.7 74.52, 481.05 34.42, 439.35 -0.89 M571.42 113.92 C521.87 69.45, 469.66 25.06, 439.35 -0.89 M571.03 108.28 C537.82 80.72, 501.76 47.15, 445.75 -0.62 M571.03 108.28 C526.11 69.12, 482.7 30.33, 445.75 -0.62 M571.39 103.29 C536.5 72.82, 501.45 43.61, 452.14 -0.36 M571.39 103.29 C540.26 75.03, 508.84 48.93, 452.14 -0.36 M570.99 97.65 C529.7 61.15, 486.68 25.81, 457.79 -0.76 M570.99 97.65 C542.69 74.24, 514.29 48.78, 457.79 -0.76 M571.35 92.66 C536.83 64.38, 503.71 34.1, 464.19 -0.5 M571.35 92.66 C539.89 64.55, 505.1 35.81, 464.19 -0.5 M570.96 87.02 C538.48 60.06, 507.11 31.09, 469.83 -0.89 M570.96 87.02 C549.4 68.44, 525.91 50.01, 469.83 -0.89 M571.32 82.03 C547.41 64.34, 525.6 42.55, 476.23 -0.63 M571.32 82.03 C543.39 55.92, 513.99 33.08, 476.23 -0.63 M570.92 76.39 C552.44 60.16, 533.89 44.76, 482.62 -0.37 M570.92 76.39 C537.52 45.13, 502.9 15.72, 482.62 -0.37 M571.29 71.4 C543.79 45.73, 514.72 22.04, 488.27 -0.76 M571.29 71.4 C552.22 56.36, 531.34 39.2, 488.27 -0.76 M570.89 65.76 C553.35 50.64, 536.02 34.84, 494.66 -0.5 M570.89 65.76 C552.16 51.9, 535.16 35.58, 494.66 -0.5 M571.25 60.77 C554.21 46.05, 534.41 28.65, 500.31 -0.89 M571.25 60.77 C543.7 36.79, 514.23 12.09, 500.31 -0.89 M571.61 55.79 C556.27 42.9, 541.73 30.92, 506.71 -0.63 M571.61 55.79 C548.16 35.61, 523.62 14.78, 506.71 -0.63 M571.22 50.14 C556.28 38.24, 543.31 23.69, 513.1 -0.37 M571.22 50.14 C553.46 32.49, 534.31 16.75, 513.1 -0.37 M571.58 45.16 C552.04 29.9, 531.17 10.1, 518.75 -0.77 M571.58 45.16 C549.62 27.47, 528.8 8.1, 518.75 -0.77 M571.18 39.51 C556.56 28.85, 546.73 16.19, 525.14 -0.51 M571.18 39.51 C560.84 30.92, 551.77 22.29, 525.14 -0.51 M571.54 34.53 C560.03 22.92, 544.35 12.31, 530.79 -0.9 M571.54 34.53 C559.85 25.07, 550.56 15.37, 530.79 -0.9 M571.15 28.88 C565.04 20, 554.53 15.43, 537.19 -0.64 M571.15 28.88 C561.61 18.72, 550.71 11.38, 537.19 -0.64 M571.51 23.9 C562.12 15.88, 550.58 7.02, 543.58 -0.38 M571.51 23.9 C563.06 16.58, 556.37 11.29, 543.58 -0.38 M571.11 18.25 C564.33 13.96, 558.16 5.55, 549.23 -0.77 M571.11 18.25 C564.81 11.71, 557.28 5.53, 549.23 -0.77 M571.47 13.27 C564.24 9.49, 557.11 1.79, 555.62 -0.51 M571.47 13.27 C565.69 9.09, 560.52 5.29, 555.62 -0.51 M571.08 7.62 C568.92 6.37, 565.89 3.63, 561.27 -0.9 M571.08 7.62 C569.19 6.06, 566.23 3.58, 561.27 -0.9 M571.44 2.64 C569.97 1.84, 569.12 0.47, 567.66 -0.64 M571.44 2.64 C570.64 2.17, 569.67 1.45, 567.66 -0.64" stroke="#ffc9c9" stroke-width="0.5" fill="none"/><path d="M0 0 C213.68 -0.59, 426.62 0.03, 571 0 M0 0 C195.03 -0.63, 390.43 -0.2, 571 0 M571 0 C569.72 67.5, 571.94 137.58, 571 179 M571 0 C573.37 43.01, 572.65 88.83, 571 179 M571 179 C380.06 178.01, 187.24 178.09, 0 179 M571 179 C350.33 179.26, 130.13 179.15, 0 179 M0 179 C-0.13 143.23, -1.07 107.96, 0 0 M0 179 C0.55 117.64, 0.42 55.12, 0 0" stroke="#ffffff" stroke-width="1" fill="none"/></g><g stroke-linecap="round" transform="translate(181 269) rotate(0 128 22)"><path d="M11 0 C59.11 0, 107.21 0, 245 0 C252.33 0, 256 3.67, 256 11 C256 15.91, 256 20.82, 256 33 C256 40.33, 252.33 44, 245 44 C160.21 44, 75.42 44, 11 44 C3.67 44, 0 40.33, 0 33 C0 25.23, 0 17.45, 0 11 C0 3.67, 3.67 0, 11 0" stroke="none" stroke-width="0" fill="#e03131"/><path d="M11 0 C89.93 0, 168.86 0, 245 0 M11 0 C100.16 0, 189.32 0, 245 0 M245 0 C252.33 0, 256 3.67, 256 11 M245 0 C252.33 0, 256 3.67, 256 11 M256 11 C256 17.68, 256 24.35, 256 33 M256 11 C256 19.11, 256 27.21, 256 33 M256 33 C256 40.33, 252.33 44, 245 44 M256 33 C256 40.33, 252.33 44, 245 44 M245 44 C181.05 44, 117.1 44, 11 44 M245 44 C171.01 44, 97.02 44, 11 44 M11 44 C3.67 44, 0 40.33, 0 33 M11 44 C3.67 44, 0 40.33, 0 33 M0 33 C0 25.25, 0 17.49, 0 11 M0 33 C0 24.91, 0 16.82, 0 11 M0 11 C0 3.67, 3.67 0, 11 0 M0 11 C0 3.67, 3.67 0, 11 0" stroke="transparent" stroke-width="1" fill="none"/></g><g transform="translate(245.84004974365234 280.2) rotate(0 63.159950256347656 10.800000000000011)"><text x="63.159950256347656" y="16.064" font-family="Nunito, Segoe UI Emoji" font-size="16px" fill="#ffffff" text-anchor="middle" style="white-space: pre;" direction="ltr" dominant-baseline="alphabetic">Distriktsstyrelsen</text></g><g stroke-linecap="round" transform="translate(360 303) rotate(0 84 20)"><path d="M10 0 C56.87 0, 103.74 0, 158 0 C164.67 0, 168 3.33, 168 10 C168 15.7, 168 21.4, 168 30 C168 36.67, 164.67 40, 158 40 C128.17 40, 98.35 40, 10 40 C3.33 40, 0 36.67, 0 30 C0 22.27, 0 14.55, 0 10 C0 3.33, 3.33 0, 10 0" stroke="none" stroke-width="0" fill="#e03131"/><path d="M10 0 C66.39 0, 122.78 0, 158 0 M10 0 C63.8 0, 117.6 0, 158 0 M158 0 C164.67 0, 168 3.33, 168 10 M158 0 C164.67 0, 168 3.33, 168 10 M168 10 C168 17.37, 168 24.74, 168 30 M168 10 C168 15.53, 168 21.07, 168 30 M168 30 C168 36.67, 164.67 40, 158 40 M168 30 C168 36.67, 164.67 40, 158 40 M158 40 C111.2 40, 64.41 40, 10 40 M158 40 C118.32 40, 78.64 40, 10 40 M10 40 C3.33 40, 0 36.67, 0 30 M10 40 C3.33 40, 0 36.67, 0 30 M0 30 C0 22.65, 0 15.29, 0 10 M0 30 C0 24.31, 0 18.62, 0 10 M0 10 C0 3.33, 3.33 0, 10 0 M0 10 C0 3.33, 3.33 0, 10 0" stroke="#ffffff" stroke-width="1" fill="none"/></g><g transform="translate(408.0880355834961 312.2) rotate(0 35.911964416503906 10.800000000000011)"><text x="35.911964416503906" y="16.064" font-family="Nunito, Segoe UI Emoji" font-size="16px" fill="#ffffff" text-anchor="middle" style="white-space: pre;" direction="ltr" dominant-baseline="alphabetic">Presidium</text></g><g stroke-linecap="round"><g transform="translate(309.02559999999994 319.6) rotate(0 -112.25394999999997 -63.10000000000002)"><path d="M0 0 C0 6.77, 0 13.53, 0 17.4 M0 0 C0 6.2, 0 12.4, 0 17.4 M0 17.4 C0 28.07, -5.33 33.4, -16 33.4 M0 17.4 C0 28.07, -5.33 33.4, -16 33.4 M-16 33.4 C-71.78 33.4, -127.56 33.4, -159.27 33.4 M-16 33.4 C-65.49 33.4, -114.99 33.4, -159.27 33.4 M-159.27 33.4 C-169.93 33.4, -175.27 28.07, -175.27 17.4 M-159.27 33.4 C-169.93 33.4, -175.27 28.07, -175.27 17.4 M-175.27 17.4 C-175.27 -38.31, -175.27 -94.02, -175.27 -143.6 M-175.27 17.4 C-175.27 -24.66, -175.27 -66.72, -175.27 -143.6 M-175.27 -143.6 C-175.27 -154.27, -180.6 -159.6, -191.27 -159.6 M-175.27 -143.6 C-175.27 -154.27, -180.6 -159.6, -191.27 -159.6 M-191.27 -159.6 C-201.56 -159.6, -211.86 -159.6, -224.51 -159.6 M-191.27 -159.6 C-200.27 -159.6, -209.28 -159.6, -224.51 -159.6" stroke="transparent" stroke-width="1" fill="none"/></g><g transform="translate(309.02559999999994 319.6) rotate(0 -112.25394999999997 -63.10000000000002)"><path d="M-201.37 -168.02 C-210.37 -164.75, -219.36 -161.47, -224.51 -159.6 M-201.37 -168.02 C-209.62 -165.02, -217.86 -162.02, -224.51 -159.6" stroke="transparent" stroke-width="1" fill="none"/></g><g transform="translate(309.02559999999994 319.6) rotate(0 -112.25394999999997 -63.10000000000002)"><path d="M-201.37 -151.18 C-210.37 -154.45, -219.36 -157.73, -224.51 -159.6 M-201.37 -151.18 C-209.62 -154.18, -217.86 -157.18, -224.51 -159.6" stroke="transparent" stroke-width="1" fill="none"/></g></g><mask/><g transform="translate(337 43) rotate(0 -25.5 19)" stroke="none"><path fill="#ffffff" d="M -1.53,0.76 Q -1.53,0.76 -2.18,-0.34 -2.83,-1.45 -4.65,-2.68 -6.48,-3.92 -9.29,-4.89 -12.10,-5.86 -18.16,-7.17 -24.22,-8.48 -31.07,-9.35 -37.93,-10.21 -45.42,-10.59 -52.91,-10.98 -59.26,-11.15 -65.61,-11.32 -73.48,-11.41 -81.35,-11.49 -88.41,-11.24 -95.47,-11.00 -99.25,-10.33 -103.03,-9.66 -104.42,-9.15 -105.82,-8.64 -106.15,-7.48 -106.47,-6.32 -106.15,-4.13 -105.83,-1.94 -104.94,-0.27 -104.04,1.40 -101.99,4.12 -99.93,6.85 -95.45,10.23 -90.97,13.60 -84.25,16.76 -77.52,19.91 -70.39,22.12 -63.27,24.33 -55.41,25.56 -47.55,26.79 -33.30,27.89 -19.04,29.00 -8.38,29.47 2.26,29.95 10.55,30.44 18.84,30.93 25.27,31.72 31.71,32.51 38.20,33.72 44.70,34.92 48.32,35.72 51.95,36.52 53.77,36.81 55.59,37.09 56.66,37.52 57.72,37.95 58.70,39.50 59.68,41.06 59.47,42.11 59.26,43.17 58.33,44.52 57.41,45.88 55.80,46.87 54.20,47.86 51.32,49.48 48.45,51.10 45.81,52.10 43.17,53.09 42.80,53.14 42.42,53.18 42.05,53.10 41.68,53.02 41.36,52.83 41.03,52.64 40.78,52.35 40.54,52.06 40.39,51.71 40.25,51.36 40.23,50.98 40.20,50.60 40.30,50.24 40.40,49.87 40.61,49.56 40.82,49.24 41.12,49.01 41.42,48.78 41.78,48.66 42.14,48.53 42.52,48.53 42.90,48.53 43.26,48.65 43.62,48.77 43.92,48.99 44.22,49.22 44.44,49.53 44.65,49.85 44.76,50.21 44.86,50.57 44.84,50.95 44.82,51.33 44.69,51.68 44.55,52.04 44.30,52.33 44.06,52.62 43.74,52.81 43.41,53.01 43.04,53.09 42.67,53.18 42.30,53.14 41.92,53.10 41.58,52.94 41.23,52.79 40.96,52.53 40.68,52.27 40.50,51.94 40.32,51.60 40.26,51.23 40.19,50.86 40.25,50.48 40.31,50.11 40.49,49.77 40.66,49.44 40.93,49.17 41.21,48.91 41.55,48.75 41.89,48.59 41.89,48.59 41.89,48.59 44.38,47.74 46.87,46.89 48.23,46.41 49.59,45.92 50.67,44.86 51.76,43.81 52.84,43.22 53.92,42.64 54.47,41.27 55.02,39.90 53.20,39.51 51.38,39.11 47.80,38.33 44.21,37.54 37.80,36.35 31.38,35.17 25.03,34.39 18.68,33.62 10.41,33.14 2.15,32.66 -8.55,32.20 -19.25,31.74 -33.61,30.65 -47.98,29.56 -56.04,28.32 -64.10,27.07 -71.44,24.83 -78.77,22.59 -85.79,19.33 -92.80,16.07 -97.64,12.47 -102.48,8.87 -104.77,5.99 -107.06,3.12 -108.27,1.10 -109.48,-0.92 -109.92,-2.99 -110.36,-5.06 -109.90,-6.43 -109.45,-7.80 -108.38,-9.43 -107.30,-11.06 -105.40,-11.71 -103.51,-12.35 -99.54,-13.06 -95.57,-13.76 -88.45,-14.04 -81.33,-14.31 -73.44,-14.27 -65.54,-14.22 -59.16,-14.10 -52.77,-13.98 -45.16,-13.65 -37.56,-13.33 -30.55,-12.54 -23.54,-11.75 -17.27,-10.52 -11.00,-9.29 -7.80,-8.34 -4.60,-7.40 -2.59,-6.24 -0.59,-5.08 -0.02,-4.11 0.53,-3.14 1.03,-1.95 1.53,-0.76 1.60,-0.57 1.67,-0.37 1.69,-0.17 1.71,0.03 1.68,0.23 1.65,0.44 1.57,0.63 1.50,0.82 1.37,0.99 1.25,1.16 1.10,1.29 0.94,1.42 0.76,1.52 0.57,1.61 0.37,1.65 0.17,1.70 -0.03,1.69 -0.23,1.69 -0.43,1.64 -0.63,1.58 -0.81,1.48 -1.00,1.38 -1.15,1.24 -1.30,1.10 -1.41,0.93 -1.53,0.76 -1.53,0.76 L -1.53,0.76 Z"/></g><g transform="translate(227 54) rotate(0 0.00004999999998744897 0.00005000000000165983)" stroke="none"><path fill="#ffffff" d="M 1.57,-1.57 Q 1.57,-1.57 1.77,-1.27 1.98,-0.98 2.09,-0.64 2.20,-0.29 2.19,0.05 2.18,0.41 2.05,0.75 1.93,1.09 1.70,1.37 1.48,1.65 1.18,1.84 0.87,2.04 0.52,2.12 0.18,2.21 -0.17,2.18 -0.53,2.15 -0.86,2.01 -1.19,1.87 -1.46,1.63 -1.73,1.39 -1.90,1.07 -2.08,0.76 -2.15,0.41 -2.21,0.05 -2.17,-0.29 -2.12,-0.65 -1.96,-0.97 -1.80,-1.29 -1.54,-1.54 -1.29,-1.80 -0.97,-1.96 -0.65,-2.12 -0.29,-2.17 0.06,-2.21 0.41,-2.15 0.76,-2.08 1.07,-1.90 1.39,-1.73 1.63,-1.46 1.87,-1.19 2.01,-0.86 2.15,-0.53 2.18,-0.17 2.21,0.18 2.12,0.52 2.03,0.87 1.84,1.18 1.65,1.48 1.37,1.70 1.09,1.93 0.75,2.05 0.41,2.18 0.05,2.19 -0.30,2.20 -0.64,2.09 -0.98,1.98 -1.27,1.77 -1.57,1.56 -1.57,1.57 -1.57,1.57 -1.73,1.35 -1.90,1.14 -2.01,0.90 -2.12,0.66 -2.16,0.39 -2.21,0.13 -2.20,-0.13 -2.18,-0.40 -2.10,-0.65 -2.02,-0.91 -1.88,-1.14 -1.74,-1.36 -1.55,-1.55 -1.36,-1.74 -1.14,-1.88 -0.91,-2.02 -0.65,-2.10 -0.40,-2.18 -0.13,-2.20 0.13,-2.21 0.39,-2.16 0.66,-2.12 0.90,-2.01 1.14,-1.90 1.35,-1.73 1.57,-1.57 1.57,-1.57 L 1.57,-1.57 Z"/></g><g transform="translate(187 47) rotate(0 187.5 39.5)" stroke="none"><path fill="#ffffff" d="M 0.26,-1.57 Q 0.26,-1.57 1.99,-1.32 3.72,-1.07 8.32,0.56 12.91,2.20 17.42,4.06 21.93,5.92 30.99,9.29 40.05,12.67 52.24,16.98 64.43,21.30 73.05,24.29 81.68,27.28 89.92,29.70 98.15,32.11 104.57,34.30 110.99,36.50 117.12,38.28 123.25,40.06 127.65,41.71 132.04,43.35 136.14,44.60 140.25,45.86 144.25,46.67 148.25,47.48 152.85,48.40 157.45,49.33 162.21,49.72 166.96,50.10 173.03,50.55 179.11,51.01 184.29,51.49 189.47,51.97 196.83,52.46 204.18,52.96 214.80,53.74 225.41,54.52 235.11,55.43 244.80,56.34 251.23,57.02 257.65,57.69 265.01,58.85 272.37,60.00 278.71,61.65 285.05,63.30 291.72,64.86 298.40,66.41 306.11,67.93 313.82,69.45 319.98,70.68 326.14,71.90 331.64,72.99 337.13,74.09 343.72,74.83 350.32,75.58 354.55,75.89 358.79,76.21 361.52,76.64 364.25,77.07 366.20,77.22 368.16,77.37 369.57,77.33 370.97,77.30 372.79,77.30 374.61,77.29 374.88,77.34 375.15,77.39 375.39,77.53 375.63,77.66 375.81,77.86 376.00,78.07 376.11,78.32 376.22,78.57 376.24,78.84 376.26,79.11 376.20,79.38 376.14,79.65 375.99,79.88 375.84,80.11 375.63,80.28 375.42,80.46 375.16,80.55 374.91,80.65 374.63,80.66 374.36,80.67 374.10,80.59 373.83,80.51 373.61,80.35 373.39,80.19 373.22,79.97 373.06,79.75 372.98,79.49 372.90,79.23 372.90,78.95 372.91,78.68 373.00,78.42 373.10,78.16 373.27,77.95 373.44,77.73 373.67,77.58 373.90,77.43 374.16,77.37 374.43,77.30 374.70,77.32 374.97,77.34 375.23,77.45 375.48,77.55 375.68,77.74 375.89,77.92 376.03,78.15 376.16,78.39 376.22,78.66 376.27,78.93 376.23,79.20 376.20,79.47 376.08,79.72 375.96,79.97 375.76,80.16 375.57,80.36 375.33,80.48 375.08,80.60 374.81,80.64 374.54,80.68 374.54,80.68 374.54,80.68 372.67,80.57 370.80,80.47 369.36,80.28 367.92,80.09 365.88,79.88 363.84,79.67 361.22,79.25 358.60,78.83 354.31,78.51 350.02,78.19 343.32,77.43 336.62,76.66 331.12,75.57 325.63,74.48 319.47,73.25 313.31,72.03 305.56,70.50 297.80,68.97 291.09,67.41 284.39,65.84 278.17,64.22 271.96,62.59 264.67,61.45 257.37,60.31 250.97,59.63 244.56,58.96 234.89,58.05 225.22,57.15 214.61,56.36 204.01,55.58 196.62,55.09 189.23,54.59 184.07,54.12 178.91,53.64 172.83,53.18 166.75,52.73 161.84,52.33 156.93,51.92 152.33,51.00 147.73,50.07 143.60,49.23 139.48,48.40 135.29,47.12 131.10,45.85 126.81,44.24 122.51,42.64 116.31,40.85 110.11,39.06 103.75,36.90 97.39,34.74 89.08,32.32 80.78,29.90 72.13,26.94 63.49,23.97 51.27,19.68 39.05,15.39 29.92,12.05 20.80,8.71 16.33,6.95 11.87,5.18 7.52,3.70 3.17,2.22 1.45,1.89 -0.26,1.57 -0.44,1.51 -0.62,1.46 -0.79,1.36 -0.96,1.26 -1.09,1.13 -1.23,1.00 -1.33,0.83 -1.44,0.67 -1.50,0.49 -1.56,0.31 -1.57,0.12 -1.59,-0.07 -1.55,-0.25 -1.52,-0.44 -1.45,-0.62 -1.37,-0.80 -1.25,-0.95 -1.14,-1.10 -0.99,-1.22 -0.84,-1.34 -0.67,-1.43 -0.49,-1.51 -0.30,-1.54 -0.12,-1.58 0.07,-1.57 0.26,-1.57 0.26,-1.57 L 0.26,-1.57 Z"/></g></svg>