<?xml version="1.0" encoding="utf-8"?>
<!-- Generator: Adobe Adobe Illustrator 24.2.0, SVG Export Plug-In . SVG Version: 6.00 Build 0)  -->
<svg version="1.1" xmlns="http://www.w3.org/2000/svg" xmlns:xlink="http://www.w3.org/1999/xlink" x="0px" y="0px"
	 viewBox="0 0 960 397.63" style="enable-background:new 0 0 960 397.63;" xml:space="preserve">
<style type="text/css">
	.st0{opacity:0.502;fill-rule:evenodd;clip-rule:evenodd;fill:#FAFAFA;}
	.st1{opacity:0.502;fill-rule:evenodd;clip-rule:evenodd;fill:#DA7472;}
	.st2{opacity:0.502;fill-rule:evenodd;clip-rule:evenodd;fill:#F1E9DE;}
	.st3{opacity:0.502;fill-rule:evenodd;clip-rule:evenodd;fill:#B3D3AB;}
	.st4{fill:none;stroke:#000000;stroke-miterlimit:10;stroke-dasharray:4,3;}
	.st5{fill-rule:evenodd;clip-rule:evenodd;fill:#F0F0F0;}
	.st6{fill-rule:evenodd;clip-rule:evenodd;fill:#E3D5C2;}
	.st7{fill-rule:evenodd;clip-rule:evenodd;fill:#A9191E;}
	.st8{fill:none;stroke:#000000;stroke-width:0.5;stroke-miterlimit:10;}
	.st9{fill-rule:evenodd;clip-rule:evenodd;fill:#FAFAFA;}
	.st10{fill-rule:evenodd;clip-rule:evenodd;fill:#F1E9DE;}
	.st11{fill-rule:evenodd;clip-rule:evenodd;fill:#DA7472;}
	.st12{fill:none;stroke:#A91C22;stroke-miterlimit:10;}
	.st13{opacity:0.102;fill-rule:evenodd;clip-rule:evenodd;fill:#ECB9B8;}
	.st14{fill-rule:evenodd;clip-rule:evenodd;fill:#B3D3AB;}
	.st15{font-family:'Calibri';}
	.st16{font-size:11px;}
	.st17{fill-rule:evenodd;clip-rule:evenodd;fill:#B3D3AB;stroke:#D9E9D5;stroke-miterlimit:10;}
	.st18{display:none;}
	.st19{display:inline;}
</style>
<g id="bg_ljus">
	<rect id="operationellt_2_" y="267.95" class="st0" width="960" height="80.94"/>
	<rect id="strategiskt_2_" y="149.16" class="st1" width="960" height="57.23"/>
	<rect id="taktiskt_2_" y="201.49" class="st2" width="960" height="72.39"/>
	<rect id="demokratiskt_1_" class="st3" width="960" height="107.33"/>
	<g id="text_6_">
	</g>
</g>
<g id="TFA_linjer_1_">
	<g id="linjer">
		<path d="M781.83,204.06l6.37,3.72l-6.37,3.71c-0.12,0.07-0.27,0.03-0.34-0.09s-0.03-0.27,0.09-0.34l6-3.5v0.43l-6-3.5
			c-0.12-0.07-0.16-0.22-0.09-0.34S781.71,203.99,781.83,204.06z M122.06,207.53h665.62v0.5H122.06V207.53z"/>
		<path d="M781.83,223.9l6.37,3.72l-6.37,3.72c-0.12,0.07-0.27,0.03-0.34-0.09s-0.03-0.28,0.09-0.35l6-3.5v0.44l-6-3.5
			c-0.12-0.07-0.16-0.23-0.09-0.35C781.56,223.88,781.71,223.83,781.83,223.9z M122.06,227.37h665.62v0.5H122.06V227.37z"/>
		<path d="M781.83,244.02l6.37,3.72l-6.37,3.71c-0.12,0.07-0.27,0.03-0.34-0.09c-0.07-0.12-0.03-0.27,0.09-0.34l6-3.5v0.43l-6-3.5
			c-0.12-0.07-0.16-0.22-0.09-0.34C781.56,243.99,781.71,243.95,781.83,244.02z M122.06,247.49h665.62v0.5H122.06V247.49z"/>
		<path d="M781.83,263.86l6.37,3.72l-6.37,3.71c-0.12,0.07-0.27,0.03-0.34-0.09c-0.07-0.11-0.03-0.27,0.09-0.34l6-3.5v0.43l-6-3.5
			c-0.12-0.06-0.16-0.22-0.09-0.34C781.56,263.83,781.71,263.79,781.83,263.86z M122.06,267.33h665.62v0.5H122.06V267.33z"/>
	</g>
	<g id="text_7_">
		<path class="st4" d="M8.67,242.01c0-1.53,1.25-2.78,2.78-2.78h107.82c1.53,0,2.78,1.25,2.78,2.78v11.45
			c0,1.53-1.25,2.78-2.78,2.78H11.46c-1.54,0-2.78-1.25-2.78-2.78V242.01z"/>
		<path class="st4" d="M8.67,261.86c0-1.54,1.25-2.79,2.78-2.79h107.82c1.53,0,2.78,1.25,2.78,2.79v11.44
			c0,1.54-1.25,2.78-2.78,2.78H11.46c-1.54,0-2.78-1.24-2.78-2.78V261.86z"/>
		<path class="st4" d="M8.67,202.06c0-1.54,1.25-2.79,2.78-2.79h107.82c1.53,0,2.78,1.25,2.78,2.79v11.44
			c0,1.54-1.25,2.78-2.78,2.78H11.46c-1.54,0-2.78-1.24-2.78-2.78V202.06z"/>
		<path class="st4" d="M8.67,221.9c0-1.54,1.25-2.78,2.78-2.78h107.82c1.53,0,2.78,1.24,2.78,2.78v11.44c0,1.54-1.25,2.78-2.78,2.78
			H11.46c-1.54,0-2.78-1.24-2.78-2.78V221.9z"/>
	</g>
</g>
<g id="bg_1_">
	<path id="operationellt_2" class="st5" d="M195.97,356.38c0-1.62,1.31-2.94,2.94-2.94h561.04c1.63,0,2.95,1.32,2.95,2.94v38.3
		c0,1.63-1.32,2.95-2.95,2.95H198.91c-1.63,0-2.94-1.32-2.94-2.95V356.38z"/>
	<path id="operationellt" class="st5" d="M196.54,267.54c0-1.52,1.23-2.75,2.75-2.75h561.42c1.52,0,2.75,1.23,2.75,2.75v78.6
		c0,1.52-1.23,2.75-2.75,2.75H199.29c-1.52,0-2.75-1.23-2.75-2.75V267.54z"/>
	<path id="taktiskt" class="st6" d="M196.25,215.84c0-1.01,0.82-1.83,1.83-1.83h563.27c1.01,0,1.83,0.82,1.83,1.83v42.58
		c0,1.01-0.82,1.82-1.83,1.82H198.08c-1.01,0-1.83-0.81-1.83-1.82V215.84z"/>
	<path id="strategiskt" class="st7" d="M196.25,151.85c0-1.27,1.03-2.3,2.31-2.3h562.31c1.28,0,2.31,1.03,2.31,2.3v55.33
		c0,1.28-1.03,2.31-2.31,2.31H198.56c-1.28,0-2.31-1.03-2.31-2.31V151.85z"/>
</g>
<g id="Linjer">
	<line class="st8" x1="345.31" y1="21.26" x2="332.48" y2="21.15"/>
	<line class="st8" x1="332.48" y1="49.93" x2="338.15" y2="49.93"/>
	<line class="st8" x1="332.48" y1="85.91" x2="338.15" y2="85.91"/>
	<line class="st8" x1="338.15" y1="85.91" x2="338.15" y2="21.59"/>
	<line class="st8" x1="479.43" y1="35.43" x2="479.72" y2="158.63"/>
	<line class="st8" x1="691" y1="223.85" x2="691" y2="218.18"/>
	<line class="st8" x1="549.52" y1="223.79" x2="549.52" y2="218.12"/>
	<line class="st8" x1="403" y1="223.79" x2="403" y2="218.12"/>
	<line class="st8" x1="263.88" y1="224.16" x2="263.88" y2="218.49"/>
	<line class="st8" x1="263.88" y1="218.49" x2="691" y2="218.49"/>
	<line class="st8" x1="479.43" y1="186.98" x2="479.43" y2="218.16"/>
	<line class="st8" x1="479.43" y1="218.87" x2="479.43" y2="273.86"/>
	<line class="st8" x1="339.3" y1="310.56" x2="339.3" y2="304.89"/>
	<line class="st8" x1="620.97" y1="310.74" x2="620.97" y2="305.07"/>
	<line class="st8" x1="620.97" y1="304.89" x2="339.3" y2="304.89"/>
	<line class="st8" x1="690.44" y1="361.65" x2="690.44" y2="355.98"/>
	<line class="st8" x1="549.77" y1="361.66" x2="549.77" y2="355.99"/>
	<line class="st8" x1="268.18" y1="361.66" x2="268.18" y2="355.99"/>
	<line class="st8" x1="408.85" y1="361.66" x2="408.85" y2="355.99"/>
	<line class="st8" x1="268.71" y1="355.99" x2="408.85" y2="355.99"/>
	<line class="st8" x1="549.77" y1="355.98" x2="690.44" y2="355.98"/>
	<line class="st8" x1="620.67" y1="339.08" x2="620.67" y2="355.98"/>
	<line class="st8" x1="339.33" y1="339.08" x2="339.3" y2="355.99"/>
	<line class="st8" x1="480" y1="302.22" x2="480" y2="304.89"/>
</g>
<g id="Operationellt">
	<g id="R4">
		<path class="st9" d="M626.66,365.88c0-2.56,2.08-4.64,4.64-4.64h118.28c2.56,0,4.64,2.08,4.64,4.64v19.07
			c0,2.56-2.08,4.64-4.64,4.64H631.3c-2.56,0-4.64-2.08-4.64-4.64V365.88z"/>
	</g>
	<g id="R3">
		<path class="st9" d="M485.99,365.88c0-2.56,2.07-4.64,4.64-4.64h118.28c2.56,0,4.64,2.08,4.64,4.64v19.07
			c0,2.56-2.08,4.64-4.64,4.64H490.63c-2.57,0-4.64-2.08-4.64-4.64V365.88z"/>
	</g>
	<g id="R2">
		<path class="st9" d="M345.31,365.88c0-2.56,2.08-4.64,4.64-4.64h118.29c2.56,0,4.63,2.08,4.63,4.64v19.07
			c0,2.56-2.07,4.64-4.63,4.64H349.95c-2.56,0-4.64-2.08-4.64-4.64V365.88z"/>
	</g>
	<g id="R1">
		<path class="st9" d="M204.64,365.88c0-2.56,2.08-4.64,4.64-4.64h118.28c2.56,0,4.64,2.08,4.64,4.64v19.07
			c0,2.56-2.08,4.64-4.64,4.64H209.28c-2.56,0-4.64-2.08-4.64-4.64V365.88z"/>
	</g>
	<g id="AVD2">
		<path class="st9" d="M486.56,312.64c0-1.05,0.85-1.9,1.9-1.9h264.43c1.05,0,1.9,0.85,1.9,1.9v24.55c0,1.04-0.85,1.89-1.9,1.89
			H488.46c-1.05,0-1.9-0.85-1.9-1.89V312.64z"/>
	</g>
	<g id="AVD1">
		<path class="st9" d="M205.21,312.18c0-0.8,0.65-1.44,1.44-1.44H472c0.8,0,1.44,0.64,1.44,1.44v25.46c0,0.8-0.64,1.44-1.44,1.44
			H206.65c-0.79,0-1.44-0.64-1.44-1.44V312.18z"/>
	</g>
	<g id="ledning">
		<path class="st9" d="M345.88,275.09c0-0.67,0.55-1.21,1.22-1.21h265.8c0.67,0,1.22,0.54,1.22,1.21v25.92
			c0,0.67-0.55,1.21-1.22,1.21H347.1c-0.67,0-1.22-0.54-1.22-1.21V275.09z"/>
	</g>
	<g id="RG">
		<path id="pil" d="M187.15,325.34l6.55,3.38l-6.16,4.04c-0.12,0.08-0.28,0.05-0.35-0.07c-0.08-0.12-0.04-0.27,0.07-0.35l5.81-3.8
			l0.02,0.43l-6.17-3.19c-0.12-0.06-0.17-0.21-0.11-0.33C186.88,325.32,187.03,325.28,187.15,325.34z M119.81,356.91l2.72-3.21
			l2.79-3.17l2.91-3.09l1.52-1.49l1.57-1.46l1.63-1.4l1.7-1.37l1.77-1.29l1.86-1.25l1.94-1.17l2.05-1.11l2.15-1.01l2.25-0.94
			l2.37-0.84l2.48-0.76l2.59-0.68l2.68-0.61l2.77-0.53l2.84-0.48l2.93-0.42l2.98-0.37l3.05-0.32l3.09-0.28l6.31-0.48l6.44-0.37
			l6-0.31l0.02,0.5l-5.99,0.31l-6.44,0.37h0.01l-6.31,0.47h0.01l-3.09,0.29l-3.05,0.32h0.01l-2.98,0.37l-2.91,0.41l-2.84,0.48h0.01
			l-2.76,0.53h0.01l-2.67,0.61v-0.01l-2.58,0.68h0.01l-2.46,0.75h0.01l-2.37,0.84h0.02l-2.25,0.93l0.01-0.01l-2.13,1.01h0.01
			l-2.03,1.09h0.01l-1.94,1.17l0.01-0.01l-1.84,1.24l0.01-0.01l-1.77,1.29h0.01l-1.69,1.35l-1.62,1.4l0.01-0.01l-1.57,1.46
			l0.01-0.01l-1.52,1.49l0.01-0.01l-2.9,3.08v-0.01l-2.78,3.17v-0.01l-2.72,3.21L119.81,356.91z"/>
		<path class="st4" d="M65.37,361.63c0-2.56,2.08-4.64,4.64-4.64h104.11c2.56,0,4.63,2.08,4.63,4.64v19.07
			c0,2.56-2.07,4.64-4.63,4.64H70c-2.56,0-4.64-2.08-4.64-4.64V361.63z"/>
	</g>
</g>
<g id="Taktiskt">
	<g id="K4">
		<path class="st10" d="M626.95,228.8c0-2.56,2.07-4.64,4.63-4.64h118.29c2.56,0,4.64,2.08,4.64,4.64v19.07
			c0,2.56-2.08,4.64-4.64,4.64H631.58c-2.56,0-4.63-2.08-4.63-4.64V228.8z"/>
	</g>
	<g id="K3">
		<path class="st10" d="M485.21,228.48c0-2.56,2.08-4.63,4.64-4.63h119.34c2.57,0,4.64,2.07,4.64,4.63v19.07
			c0,2.57-2.07,4.64-4.64,4.64H489.85c-2.56,0-4.64-2.07-4.64-4.64V228.48z"/>
	</g>
	<g id="K2">
		<path class="st10" d="M345.6,228.8c0-2.56,2.08-4.64,4.64-4.64h118.28c2.56,0,4.64,2.08,4.64,4.64v19.07
			c0,2.56-2.08,4.64-4.64,4.64H350.24c-2.56,0-4.64-2.08-4.64-4.64V228.8z"/>
	</g>
	<g id="K1">
		<path class="st10" d="M204.93,228.48c0-2.56,2.07-4.63,4.63-4.63h118.29c2.56,0,4.63,2.07,4.63,4.63v19.07
			c0,2.57-2.07,4.64-4.63,4.64H209.56c-2.56,0-4.63-2.07-4.63-4.64V228.48z"/>
	</g>
</g>
<g id="Strategiskt">
	<g id="DS">
		<path class="st11" d="M345.6,161.27c0-1.46,1.18-2.64,2.64-2.64h262.95c1.46,0,2.64,1.18,2.64,2.64v23.07
			c0,1.46-1.18,2.64-2.64,2.64H348.24c-1.46,0-2.64-1.18-2.64-2.64V161.27z"/>
	</g>
	<g id="Presidium">
		<path id="bg" class="st11" d="M541.67,175.77c0-1.45,1.18-2.63,2.64-2.63h123.34c1.46,0,2.64,1.18,2.64,2.63v23.07
			c0,1.46-1.18,2.64-2.64,2.64H544.31c-1.46,0-2.64-1.18-2.64-2.64V175.77z"/>
		<path id="linje" class="st12" d="M541.67,175.77c0-1.45,1.18-2.63,2.64-2.63h123.34c1.46,0,2.64,1.18,2.64,2.63v23.07
			c0,1.46-1.18,2.64-2.64,2.64H544.31c-1.46,0-2.64-1.18-2.64-2.64V175.77z"/>
		<g id="text_4_">
			<defs>
				<rect id="SVGID_1_" x="584.06" y="182.55" width="48.8" height="10.08"/>
			</defs>
			<clipPath id="SVGID_2_">
				<use xlink:href="#SVGID_1_"  style="overflow:visible;"/>
			</clipPath>
		</g>
	</g>
	<g id="AG">
		<path class="st13" d="M65.37,118.2c0-2.56,2.08-4.64,4.64-4.64h104.11c2.56,0,4.63,2.08,4.63,4.64v19.07
			c0,2.56-2.07,4.64-4.63,4.64H70c-2.56,0-4.64-2.08-4.64-4.64V118.2z"/>
		<path class="st4" d="M65.37,118.2c0-2.56,2.08-4.64,4.64-4.64h104.11c2.56,0,4.63,2.08,4.63,4.64v19.07
			c0,2.56-2.07,4.64-4.63,4.64H70c-2.56,0-4.64-2.08-4.64-4.64V118.2z"/>
		<path d="M187.15,173.64l6.55-3.38l-6.16-4.04c-0.12-0.08-0.28-0.05-0.35,0.07c-0.08,0.12-0.04,0.27,0.07,0.35l5.81,3.8l0.02-0.43
			l-6.17,3.19c-0.12,0.06-0.17,0.21-0.11,0.33C186.88,173.66,187.03,173.7,187.15,173.64z M119.81,142.07l2.72,3.21l2.79,3.17
			l2.91,3.09l1.52,1.49l1.57,1.46l1.63,1.4l1.7,1.37l1.77,1.29l1.86,1.25l1.94,1.17l2.05,1.11l2.15,1.01l2.25,0.94l2.37,0.84
			l2.48,0.76l2.59,0.68l2.68,0.61l2.77,0.53l2.84,0.48l2.93,0.42l2.98,0.37l3.05,0.32l3.09,0.28l6.31,0.48l6.44,0.37l6,0.31
			l0.02-0.5l-5.99-0.31l-6.44-0.37h0.01l-6.31-0.47h0.01l-3.09-0.29l-3.05-0.32h0.01l-2.98-0.37l-2.91-0.41l-2.84-0.48h0.01
			l-2.76-0.53h0.01l-2.67-0.61v0.01l-2.58-0.68h0.01l-2.46-0.75h0.01l-2.37-0.84h0.02l-2.25-0.93l0.01,0.01l-2.13-1.01h0.01
			l-2.03-1.09h0.01l-1.94-1.17l0.01,0.01l-1.84-1.24l0.01,0.01l-1.77-1.29h0.01l-1.69-1.35l-1.62-1.4l0.01,0.01l-1.57-1.46
			l0.01,0.01l-1.52-1.49l0.01,0.01l-2.9-3.08v0.01l-2.78-3.17v0.01l-2.72-3.21L119.81,142.07z"/>
	</g>
</g>
<g id="Demokratiskt">
	<g id="Årsmöte">
		<path id="box_3_" class="st14" d="M345.31,9.72c0-1.45,1.19-2.63,2.64-2.63h262.96c1.46,0,2.64,1.18,2.64,2.63v23.07
			c0,1.46-1.18,2.64-2.64,2.64H347.95c-1.45,0-2.64-1.18-2.64-2.64V9.72z"/>
		<text transform="matrix(1 0 0 1 460.3064 24.3883)" class="st15 st16">Årsmöte</text>
	</g>
	<g id="Repskap">
		<path id="box_2_" class="st17" d="M541.38,24.23c0-1.46,1.18-2.64,2.64-2.64h206.99c1.46,0,2.64,1.18,2.64,2.64V47.3
			c0,1.45-1.18,2.63-2.64,2.63H544.02c-1.46,0-2.64-1.18-2.64-2.63V24.23z"/>
		<text transform="matrix(1 0 0 1 607.0865 38.7237)" class="st15 st16">Representantskap</text>
	</g>
	<g id="VB">
		<path id="box_1_" class="st14" d="M203.87,9.61c0-1.46,1.18-2.64,2.63-2.64h123.35c1.45,0,2.63,1.18,2.63,2.64v23.07
			c0,1.46-1.18,2.64-2.63,2.64H206.5c-1.45,0-2.63-1.18-2.63-2.64V9.61z"/>
		<text transform="matrix(1 0 0 1 238.3574 24.3883)" class="st15 st16">Valberedning</text>
	</g>
	<g id="REV">
		<path id="box" class="st14" d="M203.87,41.99c0-1.46,1.18-2.64,2.63-2.64h123.35c1.45,0,2.63,1.18,2.63,2.64v23.07
			c0,1.46-1.18,2.64-2.63,2.64H206.5c-1.45,0-2.63-1.18-2.63-2.64V41.99z"/>
		<text transform="matrix(1 0 0 1 249.4561 56.5484)" class="st15 st16">Revision</text>
	</g>
	<g id="DN">
		<path id="Box" class="st14" d="M203.87,74.37c0-1.46,1.18-2.64,2.63-2.64h123.35c1.45,0,2.63,1.18,2.63,2.64v23.07
			c0,1.46-1.18,2.64-2.63,2.64H206.5c-1.45,0-2.63-1.18-2.63-2.64V74.37z"/>
		<text transform="matrix(1 0 0 1 234.4933 88.7086)" class="st15 st16">Disciplinnämnd</text>
	</g>
</g>
<g id="Layer_9" class="st18">
	<text transform="matrix(1 0 0 1 607.0865 38.7237)" class="st19 st15 st16">Representantskap</text>
</g>
</svg>
